<?xml version="1.0" encoding="utf-8"?>
<!-- Generator: Adobe Illustrator 15.1.0, SVG Export Plug-In . SVG Version: 6.00 Build 0)  -->
<!DOCTYPE svg PUBLIC "-//W3C//DTD SVG 1.1//EN" "http://www.w3.org/Graphics/SVG/1.1/DTD/svg11.dtd">
<svg version="1.1" id="ENG" xmlns="http://www.w3.org/2000/svg" xmlns:xlink="http://www.w3.org/1999/xlink" x="0px" y="0px"
	 width="93.387px" height="46.705px" viewBox="0 0 93.387 46.705" enable-background="new 0 0 93.387 46.705" xml:space="preserve">
<radialGradient id="SVGID_1_" cx="42.6455" cy="10.9321" r="11.5107" gradientTransform="matrix(1.3774 0 0 1.3774 -12.0468 -0.1828)" gradientUnits="userSpaceOnUse">
	<stop  offset="0" style="stop-color:#E21D38"/>
	<stop  offset="0.3937" style="stop-color:#E01D38"/>
	<stop  offset="0.5417" style="stop-color:#DA1C36"/>
	<stop  offset="0.6483" style="stop-color:#D11A34"/>
	<stop  offset="0.7351" style="stop-color:#C51730"/>
	<stop  offset="0.8097" style="stop-color:#B5132B"/>
	<stop  offset="0.876" style="stop-color:#A10D23"/>
	<stop  offset="0.9362" style="stop-color:#8A0319"/>
	<stop  offset="0.9899" style="stop-color:#71000A"/>
	<stop  offset="1" style="stop-color:#6C0006"/>
</radialGradient>
<path fill-rule="evenodd" clip-rule="evenodd" fill="url(#SVGID_1_)" d="M59.558,13.063c-0.004-0.041-1.582-0.125-1.582-0.125
	c0.088,0.602,0.132,1.219,0.139,1.845c-0.835,4.623-8.522,3.33-8.522,3.33l0.162,0.554c0,0,4.862,1.768,7.795,0.061
	c-1.596,5.294-6.399,9.201-12.152,9.458l-0.019-0.108c-0.097-0.654-0.357-0.722-0.555-1.276c1.536-1.629,3.489-3.696,4.05-5.846
	c0.246-0.934,0.42-1.941,0.251-2.875c-0.053-0.3-0.13-0.537-0.235-0.734c3.974,0.037,7.058-0.771,7.466-4.773
	c-2.048,0-2.921-0.05-2.921,0.02c-1.258,7.323-12.725-0.983-21.926,3.342c-0.029-0.351-0.042-0.703-0.042-1.06
	c0-7.362,5.966-13.327,13.324-13.327c5.862,0,10.84,3.787,12.621,9.048L59,10.461C57.119,4.399,51.471,0,44.79,0
	c-8.214,0-14.874,6.662-14.874,14.876c0,8.215,6.659,14.875,14.874,14.875c8.218,0,14.877-6.659,14.877-14.875
	C59.667,14.263,59.627,13.657,59.558,13.063z M47.459,17.95c0.282,0,0.511,0.228,0.511,0.51c0,0.283-0.229,0.51-0.511,0.51
	c-0.275,0-0.511-0.227-0.511-0.51C46.949,18.178,47.184,17.95,47.459,17.95z M47.452,19.899c0.283,0,0.512,0.227,0.512,0.51
	c0,0.279-0.229,0.505-0.512,0.505c-0.279,0-0.507-0.226-0.507-0.505C46.945,20.126,47.172,19.899,47.452,19.899z M46.571,21.821
	c0.281,0,0.508,0.229,0.508,0.509c0,0.282-0.227,0.508-0.508,0.508c-0.284,0-0.511-0.226-0.511-0.508
	C46.06,22.05,46.287,21.821,46.571,21.821z M40.283,22.369c-1.492,0.851-3.51,1.55-5.239,1.583
	c-3.885-4.469,3.811-5.964,6.268-5.838l-0.194-0.441c0,0-6.326-0.307-8.669,2.233c-0.175-0.429-0.327-0.869-0.456-1.318
	c2.355-1.69,5.702-1.877,9.169-1.715C42.599,18.541,42.451,21.129,40.283,22.369z M36.819,13.781c-0.554,0-0.805,0.058-0.805,0.058
	c0.698-4.502,4.417-8.03,8.996-8.493c-3.366,1.068-6.117,3.739-7.093,7.357c-0.098,0.364-0.176,0.73-0.23,1.095
	C37.687,13.798,37.439,13.781,36.819,13.781z M45.771,4.197c-5.677,0-10.334,4.304-10.779,9.775c0,0-0.32,0.012-0.838,0.115
	c-0.52,0.101-0.817,0.216-0.817,0.216c0.282-6.145,5.435-11.039,11.749-11.039c5.051,0,9.357,3.13,11.024,7.525l-0.327,0.014
	C54.168,6.924,50.295,4.197,45.771,4.197z M63.47,11.812c0,0.498-0.177,0.904-0.399,0.904c-0.214,0-0.394-0.406-0.394-0.904
	c0-0.5,0.18-0.903,0.394-0.903C63.293,10.909,63.47,11.312,63.47,11.812z M62.243,11.792c0,0.49,0.289,0.905,0.289,0.905h-1.177
	c0,0-0.294-0.318-0.294-0.931c0-0.587,0.294-0.904,0.294-0.904h1.177C62.532,10.861,62.243,11.276,62.243,11.792z M56.857,11.201
	l4.029-0.195c0,0-0.275,0.33-0.275,0.772c0,0.44,0.275,0.822,0.275,0.822l-4.029-0.197c0,0-0.23-0.1-0.23-0.611
	C56.626,11.276,56.857,11.201,56.857,11.201z M42.401,14.421c-1.458-0.164-2.535-0.402-3.879-0.432
	c0.731-0.43,2.176-0.948,3.598-0.948c1.397,0,3.258,1.271,4.608,1.567C45.43,14.83,43.859,14.584,42.401,14.421z M46.112,10.762
	c-1.903,1.187-2.321,1.629-3.536,1.832l-0.714-0.13c0.676-1.004,1.486-2.354,2.439-3.172c0.704-0.606,2.131-1.667,3.21-1.691
	c0.051,0.562-0.131,1.425,0.639,1.079c0.266-0.121,0.315-0.76,0.559-0.958c0.247-0.196,0.76-0.219,0.883-0.098
	C49.089,8.99,48.124,9.513,46.112,10.762z M47.96,14.852l-3.607-1.981l1.417-0.777l1.057,0.283l-0.495-0.849l1.556-1.059
	l0.636,2.472l-0.563,0.072V14.852z M48.909,11.484h7.322c0,0-0.075,0.131-0.075,0.328c0,0.196,0.075,0.309,0.075,0.309h-7.207
	L48.909,11.484z"/>
<g>
	<path fill-rule="evenodd" clip-rule="evenodd" fill="#253A77" d="M6.489,36.909c0-0.813-0.049-1.656-0.176-2.434
		c-0.588-0.332-1.304-0.59-2.498-0.59c-2.051,0-3.546,0.844-3.546,2.862c0,3.261,4.931,3.054,4.931,5.742
		c0,1.065-0.667,1.766-1.669,1.766c-2.037,0-2.561-2.229-2.783-3.181L0,41.234c0,1.272,0.081,1.987,0.461,2.988
		c0.509,0.271,1.416,0.637,2.8,0.637c1.908,0,3.911-0.827,3.911-3.085c0-3.402-5.088-3.245-5.088-5.692
		c0-0.986,0.684-1.593,1.591-1.593c1.731,0,2.034,1.606,2.24,2.42H6.489z"/>
	<path fill-rule="evenodd" clip-rule="evenodd" fill="#253A77" d="M7.425,44.62h3.484v-0.412l-0.859-0.159
		c-0.271-0.048-0.414-0.128-0.414-0.364c0-0.111,0.142-0.638,0.318-1.133l0.62-1.733c0.303-0.144,1.114-0.205,1.495-0.205
		c0.478,0,1.241,0.062,1.59,0.191l0.875,2.4c0.079,0.224,0.128,0.382,0.128,0.541c0,0.222-0.224,0.319-0.541,0.367l-0.637,0.095
		v0.412h4.501v-0.412l-0.398-0.08c-0.556-0.127-0.749-0.541-1.004-1.224l-3.37-8.97c-0.317,0.031-0.557,0.065-0.953,0.189
		l-3.404,8.589c-0.446,1.095-0.667,1.288-1.034,1.4l-0.398,0.095V44.62z M12.069,36.431h0.032l1.321,3.658
		c-0.446-0.047-1.002-0.08-1.336-0.08c-0.35,0-0.907,0.033-1.306,0.094L12.069,36.431z"/>
	<path fill-rule="evenodd" clip-rule="evenodd" fill="#253A77" d="M21.693,36.463c0-1.573,0-1.765,0.746-1.876l0.383-0.048v-0.415
		h-4.327v0.415l0.381,0.048c0.749,0.111,0.749,0.303,0.749,1.891v5.806c0,1.573,0,1.766-0.749,1.878l-0.381,0.047v0.412h4.327
		v-0.412l-0.383-0.047c-0.746-0.112-0.746-0.305-0.746-1.878V36.463z"/>
	<path fill-rule="evenodd" clip-rule="evenodd" fill="#253A77" d="M24.235,44.62h3.562v-0.412l-0.462-0.047
		c-0.843-0.129-0.969-0.24-0.969-2.735v-4.232l7.077,7.558c0.207,0,0.651-0.081,0.826-0.131v-7.235c0-2.099,0-2.687,0.7-2.783
		l0.476-0.062v-0.415h-3.561v0.415l0.46,0.048c0.844,0.095,0.971,0.206,0.971,2.798v4.278l-7.125-7.649
		c-0.111,0-0.605,0.064-0.779,0.11v7.237c0,2.1,0,2.688-0.701,2.783l-0.475,0.063V44.62z"/>
	<path fill-rule="evenodd" clip-rule="evenodd" fill="#253A77" d="M39.923,42.314c0,1.621,0,1.687-1,1.847l-0.372,0.047v0.412h4.753
		v-0.412l-0.372-0.047c-1.003-0.16-1.003-0.226-1.003-1.847v-7.585h0.618c1.743,0,1.913,0.414,2.315,2.132h0.553
		c0-0.255-0.139-2.386-0.199-2.737H36.64c-0.063,0.352-0.202,2.482-0.202,2.737h0.556c0.4-1.718,0.57-2.132,2.313-2.132h0.615
		V42.314z"/>
	<path fill-rule="evenodd" clip-rule="evenodd" fill="#253A77" d="M51.403,46.705c3.07-0.605,3.595-1.637,3.595-5.075v-5.167
		c0-1.573,0-1.765,0.747-1.876l0.381-0.048v-0.415H51.8v0.415l0.379,0.048c0.752,0.111,0.752,0.303,0.752,1.876v4.82
		c0,2.845-0.019,4.354-1.624,5.134L51.403,46.705z"/>
	<path fill-rule="evenodd" clip-rule="evenodd" fill="#253A77" d="M62.881,44.859c3.07,0,5.726-2.033,5.726-5.694
		c0-3.545-2.496-5.279-5.566-5.279c-3.054,0-5.709,2.037-5.709,5.693C57.332,43.125,59.827,44.859,62.881,44.859z M59.654,39.196
		c0-2.526,1-4.707,3.211-4.707c2.467,0,3.42,2.434,3.42,5.058c0,2.528-1.003,4.709-3.228,4.709
		C60.606,44.256,59.654,41.821,59.654,39.196z"/>
	<path fill-rule="evenodd" clip-rule="evenodd" fill="#253A77" d="M70.753,42.283c0,1.573,0,1.766-0.744,1.878l-0.384,0.047v0.412
		h4.327v-0.412l-0.381-0.047c-0.749-0.112-0.749-0.305-0.749-1.878v-2.784h4.804v2.768c0,1.59,0,1.782-0.749,1.895l-0.38,0.047
		v0.412h4.327v-0.412l-0.367-0.047c-0.765-0.112-0.765-0.305-0.765-1.895v-5.789c0-1.588,0-1.779,0.765-1.891l0.367-0.048v-0.415
		h-4.327v0.415l0.38,0.048c0.749,0.111,0.749,0.303,0.749,1.891v2.306h-4.804v-2.32c0-1.573,0-1.765,0.749-1.876l0.381-0.048v-0.415
		h-4.327v0.415l0.384,0.048c0.744,0.111,0.744,0.303,0.744,1.891V42.283z"/>
	<path fill-rule="evenodd" clip-rule="evenodd" fill="#253A77" d="M82.176,44.62h3.563v-0.412l-0.462-0.047
		c-0.843-0.129-0.972-0.24-0.972-2.735v-4.232l7.079,7.558c0.205,0,0.651-0.081,0.826-0.131v-7.235c0-2.099,0-2.687,0.7-2.783
		l0.476-0.062v-0.415h-3.562v0.415l0.461,0.048c0.844,0.095,0.972,0.206,0.972,2.798v4.278l-7.126-7.649
		c-0.108,0-0.603,0.064-0.779,0.11v7.237c0,2.1,0,2.688-0.697,2.783l-0.479,0.063V44.62z"/>
</g>
</svg>
