<?xml version="1.0" encoding="utf-8"?>
<!-- Generator: Adobe Illustrator 15.1.0, SVG Export Plug-In . SVG Version: 6.00 Build 0)  -->
<!DOCTYPE svg PUBLIC "-//W3C//DTD SVG 1.1//EN" "http://www.w3.org/Graphics/SVG/1.1/DTD/svg11.dtd">
<svg version="1.1" id="Layer_1" xmlns="http://www.w3.org/2000/svg" xmlns:xlink="http://www.w3.org/1999/xlink" x="0px" y="0px"
	 width="232px" height="215px" viewBox="-8.195 -8.474 232 215" enable-background="new -8.195 -8.474 232 215"
	 xml:space="preserve">
<path fill="#FFFFFF" stroke="#FFFFFF" stroke-width="12" stroke-linecap="round" stroke-linejoin="round" stroke-miterlimit="10" d="
	M32.515,24.142C52.848,8.573,79.763,0,108.301,0c28.537,0,55.452,8.573,75.784,24.142c20.967,16.051,32.514,37.591,32.514,60.646
	c0,2.401-0.14,4.881-0.413,7.361c-2.6,23.756-17.503,45.107-41.283,59.564c8.078,13.572,12.69,20.414,35.875,30.449
	c3.869,1.676,6.511,5.258,5.681,9.373c-0.771,3.822-4.146,6.516-7.981,6.516c-0.295,0-0.593-0.016-0.891-0.049
	c-42.971-4.666-52.062-4.683-75.362-30.516c-7.864,1.387-15.889,2.088-23.922,2.088c-57.619,0-105.122-35.246-108.145-80.238
	C0.053,87.818,0,86.287,0,84.788C0,61.732,11.547,40.192,32.515,24.142z M8.284,88.792c2.722,40.487,46.459,72.675,100.017,72.675
	c9.356,0,18.4-1.004,26.988-2.84c21.238,25.303,27.896,26.396,73.18,31.313c-30.274-12.868-34.818-21.371-44.522-41.397
	c24.629-12.627,41.527-33.394,44.14-57.271c0.235-2.138,0.366-4.299,0.366-6.483c0-42.348-44.841-76.679-100.15-76.679
	C52.989,8.109,8.147,42.44,8.147,84.788C8.147,86.131,8.194,87.466,8.284,88.792z"/>
</svg>
