<?xml version="1.0" encoding="utf-8"?>
<!-- Generator: Adobe Illustrator 15.1.0, SVG Export Plug-In . SVG Version: 6.00 Build 0)  -->
<!DOCTYPE svg PUBLIC "-//W3C//DTD SVG 1.1//EN" "http://www.w3.org/Graphics/SVG/1.1/DTD/svg11.dtd">
<svg version="1.1" id="Layer_1" xmlns="http://www.w3.org/2000/svg" xmlns:xlink="http://www.w3.org/1999/xlink" x="0px" y="0px"
	 width="128.176px" height="155.706px" viewBox="0 0 128.176 155.706" enable-background="new 0 0 128.176 155.706"
	 xml:space="preserve">
<path fill-rule="evenodd" clip-rule="evenodd" fill="#FFFFFF" d="M39.649,79.119l2.124,64.667c0,15.899-24.354,15.895-24.353-0.023
	l2.122-64.644c0.119-3.629-1.465-6.803-4.435-8.891C5.022,63.141,0,49.521,0,37.476C0,22.713,7.545,5.584,22.71,1.018
	C24.946,0.345,27.261,0,29.596,0s4.65,0.345,6.885,1.018c15.165,4.567,22.711,21.695,22.711,36.458
	c0,12.045-5.022,25.665-15.108,32.752C41.114,72.315,39.53,75.49,39.649,79.119L39.649,79.119z"/>
<path fill-rule="evenodd" clip-rule="evenodd" fill="#FFFFFF" d="M109.282,80.845l2.067,62.941c0,16.259-23.623,15.561-23.621-0.023
	l2.064-62.917c0.149-4.543-1.686-8.515-5.239-11.348c-9.203-7.338-13.652-20.627-13.652-32.021c0-10.619,2.597-23.583,5.241-33.845
	C76.692,1.5,78.533,0,80.747,0h0.167c2.687,0,4.875,2.188,4.875,4.875v30.026l-0.005,0.056c-0.402,4.936,7.405,4.8,7.406-0.158
	l1.284-30.026C94.522,2.183,96.564,0,99.19,0h0.696c2.625,0,4.668,2.183,4.716,4.757l1.284,30.073c0,4.928,7.809,5.063,7.405,0.128
	l-0.005-0.056V4.875c0-2.688,2.188-4.875,4.876-4.875h0.166c2.215,0,4.055,1.5,4.604,3.631c2.646,10.261,5.242,23.226,5.242,33.845
	c0,11.394-4.449,24.683-13.653,32.021C110.968,72.33,109.134,76.303,109.282,80.845L109.282,80.845z"/>
</svg>
