<?xml version="1.0" encoding="utf-8"?>
<!-- Generator: Adobe Illustrator 15.1.0, SVG Export Plug-In . SVG Version: 6.00 Build 0)  -->
<!DOCTYPE svg PUBLIC "-//W3C//DTD SVG 1.1//EN" "http://www.w3.org/Graphics/SVG/1.1/DTD/svg11.dtd">
<svg version="1.1" id="Layer_1" xmlns="http://www.w3.org/2000/svg" xmlns:xlink="http://www.w3.org/1999/xlink" x="0px" y="0px"
	 width="64.695px" height="69.071px" viewBox="0 0 64.695 69.071" enable-background="new 0 0 64.695 69.071" xml:space="preserve">
<path fill-rule="evenodd" clip-rule="evenodd" fill="#FFFFFF" d="M58.874,6.525v27.266l-3.011,2.13V6.525
	c0-1.929-1.584-3.514-3.513-3.514H17.375V66.06H52.35c1.929,0,3.513-1.584,3.513-3.513V49.772l3.011-2.13v14.905
	c0,3.592-2.934,6.524-6.524,6.524H11.034c-3.591,0-6.524-2.933-6.524-6.524v-2.922H1.488C0.667,59.625,0,58.958,0,58.136
	c0-0.821,0.667-1.488,1.488-1.488h3.021v-8.824H1.488C0.667,47.824,0,47.158,0,46.336s0.667-1.488,1.488-1.488h3.021v-8.825H1.488
	C0.667,36.023,0,35.357,0,34.536s0.667-1.488,1.488-1.488h3.021v-8.824H1.488C0.667,24.223,0,23.557,0,22.735
	s0.667-1.488,1.488-1.488h3.021v-8.824H1.488C0.667,12.422,0,11.756,0,10.934s0.667-1.488,1.488-1.488h3.021V6.525
	C4.509,2.934,7.442,0,11.034,0H52.35C55.94,0,58.874,2.933,58.874,6.525L58.874,6.525z M21.354,15.387
	c-1.178-1.177,0.612-2.966,1.789-1.789l1.671,1.671l2.719-2.718c1.178-1.177,2.966,0.612,1.789,1.789
	C24.177,19.485,25.448,19.48,21.354,15.387L21.354,15.387z M21.354,26.486c-1.178-1.177,0.612-2.966,1.789-1.789l1.671,1.672
	l2.719-2.718c1.178-1.177,2.966,0.612,1.789,1.789C24.177,30.584,25.448,30.58,21.354,26.486L21.354,26.486z M21.354,37.585
	c-1.178-1.178,0.612-2.966,1.789-1.789l1.671,1.672l2.719-2.718c1.178-1.177,2.966,0.612,1.789,1.789
	C24.177,41.684,25.448,41.678,21.354,37.585L21.354,37.585z M32.865,38.94c-0.822,0-1.489-0.667-1.489-1.489
	s0.667-1.489,1.489-1.489h17.534c0.822,0,1.489,0.667,1.489,1.489s-0.667,1.489-1.489,1.489H32.865L32.865,38.94z M32.865,27.841
	c-0.822,0-1.489-0.667-1.489-1.489s0.667-1.489,1.489-1.489h17.534c0.822,0,1.489,0.667,1.489,1.489s-0.667,1.489-1.489,1.489
	H32.865L32.865,27.841z M32.319,56.021l-2.747,4.703c-0.121,0.206-0.056,0.481,0.091,0.689c0.147,0.208,0.383,0.354,0.619,0.316
	l5.324-1.06C35.52,58.98,34.005,56.662,32.319,56.021L32.319,56.021z M34.051,53.087c2.431-1.72,4.862-3.44,7.294-5.16
	c2.431-1.72,4.863-3.44,7.294-5.161c4.863-3.44,6.3-4.456,11.162-7.896c0.738,0.307,1.476,0.613,2.213,0.92
	c0.816,1.153,1.631,2.307,2.447,3.459c0.078,0.846,0.155,1.691,0.233,2.538c-4.863,3.44-6.299,4.457-11.163,7.896
	c-2.431,1.72-4.862,3.44-7.294,5.16c-2.431,1.72-4.863,3.44-7.294,5.16c0.647-1.128,0.698-2.023-0.233-2.538
	c0.095-1.878-0.932-2.863-2.447-3.459C36.054,53.077,35.493,52.626,34.051,53.087L34.051,53.087z M32.865,16.742
	c-0.822,0-1.489-0.667-1.489-1.489s0.667-1.489,1.489-1.489h17.534c0.822,0,1.489,0.667,1.489,1.489s-0.667,1.489-1.489,1.489
	H32.865L32.865,16.742z M15.958,3.011h-4.924c-1.929,0-3.513,1.584-3.513,3.514v2.921h1.508c0.437-0.546,1.109-0.896,1.864-0.896
	c1.317,0,2.385,1.068,2.385,2.385s-1.068,2.385-2.385,2.385c-0.754,0-1.427-0.35-1.864-0.896H7.521v8.824h1.508
	c0.437-0.546,1.109-0.896,1.864-0.896c1.317,0,2.385,1.068,2.385,2.385s-1.068,2.385-2.385,2.385c-0.754,0-1.427-0.35-1.864-0.896
	H7.521v8.824h1.508c0.437-0.547,1.109-0.896,1.864-0.896c1.317,0,2.385,1.067,2.385,2.385c0,1.317-1.068,2.385-2.385,2.385
	c-0.754,0-1.427-0.35-1.864-0.897H7.521v8.825h1.508c0.437-0.547,1.109-0.897,1.864-0.897c1.317,0,2.385,1.068,2.385,2.385
	s-1.068,2.385-2.385,2.385c-0.754,0-1.427-0.35-1.864-0.896H7.521v8.824h1.508c0.437-0.547,1.109-0.897,1.864-0.897
	c1.317,0,2.385,1.068,2.385,2.385c0,1.317-1.068,2.385-2.385,2.385c-0.754,0-1.427-0.35-1.864-0.896H7.521v2.922
	c0,1.929,1.584,3.513,3.513,3.513h4.924V3.011L15.958,3.011z"/>
</svg>
