<?xml version="1.0" encoding="utf-8"?>
<!-- Generator: Adobe Illustrator 15.1.0, SVG Export Plug-In . SVG Version: 6.00 Build 0)  -->
<!DOCTYPE svg PUBLIC "-//W3C//DTD SVG 1.1//EN" "http://www.w3.org/Graphics/SVG/1.1/DTD/svg11.dtd">
<svg version="1.1" id="top_nav" xmlns="http://www.w3.org/2000/svg" xmlns:xlink="http://www.w3.org/1999/xlink" x="0px" y="0px"
	 width="44px" height="43.999px" viewBox="255.913 374.074 44 43.999" enable-background="new 255.913 374.074 44 43.999"
	 xml:space="preserve">
<g>
	<circle fill="none" stroke="#000000" stroke-width="2.88" cx="277.913" cy="396.074" r="20.521"/>
	<path d="M289.165,390.065c-0.824,0.365-1.709,0.613-2.639,0.724c0.949-0.568,1.677-1.468,2.02-2.541
		c-0.888,0.526-1.87,0.908-2.917,1.114c-0.837-0.894-2.03-1.451-3.353-1.451c-2.536,0-4.593,2.057-4.593,4.594
		c0,0.358,0.041,0.709,0.119,1.046c-3.817-0.191-7.202-2.02-9.466-4.799c-0.396,0.679-0.623,1.467-0.623,2.31
		c0,1.592,0.811,2.999,2.043,3.823c-0.752-0.025-1.461-0.231-2.08-0.575c0,0.019,0,0.038,0,0.058c0,2.225,1.582,4.081,3.685,4.504
		c-0.386,0.104-0.792,0.16-1.211,0.16c-0.297,0-0.583-0.028-0.864-0.082c0.585,1.825,2.281,3.153,4.291,3.189
		c-1.572,1.231-3.553,1.967-5.703,1.967c-0.372,0-0.738-0.022-1.097-0.064c2.033,1.303,4.447,2.063,7.041,2.063
		c8.448,0,13.068-6.998,13.068-13.068c0-0.199-0.005-0.397-0.014-0.594C287.771,391.795,288.549,390.985,289.165,390.065z"/>
</g>
</svg>
