<?xml version="1.0" encoding="utf-8"?>
<!-- Generator: Adobe Illustrator 15.1.0, SVG Export Plug-In . SVG Version: 6.00 Build 0)  -->
<!DOCTYPE svg PUBLIC "-//W3C//DTD SVG 1.1//EN" "http://www.w3.org/Graphics/SVG/1.1/DTD/svg11.dtd">
<svg version="1.1" id="star" xmlns="http://www.w3.org/2000/svg" xmlns:xlink="http://www.w3.org/1999/xlink" x="0px" y="0px"
	 width="842.805px" height="804.601px" viewBox="0 0 842.805 804.601" enable-background="new 0 0 842.805 804.601"
	 xml:space="preserve">
<path fill="#FFFFFF" d="M831.447,342.834c6.384-6.318,10.222-14.504,11.141-23.096c0.501-4.605,0.137-9.324-1.115-13.935
	c-0.148-0.55-0.287-1.102-0.461-1.648c-4.453-13.585-16.29-23.584-30.418-25.646l-245.562-35.635l-3.123-6.269l-0.254-0.517
	L455.243,20.404c-2.771-5.673-6.851-10.407-11.77-13.938c-6.308-4.532-14.001-7.081-22.072-7.081c-0.005,0-0.01,0-0.015,0
	s-0.01,0-0.015,0c-2.258,0-4.482,0.224-6.662,0.614c-11.635,2.077-21.795,9.477-27.1,20.359l-36.482,73.904L277.74,242.879
	L32.215,278.51c-0.506,0.074-1.001,0.18-1.501,0.274c-0.101,0.019-0.203,0.035-0.304,0.055c-6.737,1.325-12.879,4.461-17.865,8.922
	c-0.075,0.067-0.149,0.135-0.224,0.203c-0.456,0.415-0.905,0.837-1.341,1.274c-0.131,0.131-0.257,0.267-0.386,0.399
	c-0.402,0.415-0.803,0.831-1.187,1.265c-0.052,0.059-0.101,0.122-0.152,0.181c-0.813,0.931-1.578,1.905-2.3,2.915
	c-0.088,0.124-0.183,0.244-0.27,0.369c-0.325,0.466-0.631,0.946-0.935,1.428c-0.106,0.169-0.215,0.335-0.319,0.505
	c-0.314,0.517-0.614,1.043-0.904,1.576c-0.06,0.11-0.12,0.221-0.178,0.332c-1.007,1.893-1.879,3.872-2.56,5.948
	c-2.436,7.673-2.343,15.724,0.007,23.098c0.005,0.016,0.008,0.033,0.014,0.048c0.129,0.403,0.284,0.797,0.427,1.195
	c0.15,0.422,0.288,0.848,0.454,1.264c0.006,0.016,0.014,0.031,0.021,0.047c1.91,4.792,4.806,9.23,8.613,13.001l0.018,0.017
	c0.002,0.002,0.005,0.005,0.007,0.008l0.862,0.84l109.808,107.081l5.305,5.102l61.625,60.189l-20.11,117.651l-14.608,85.287
	l-3.159,18.327l-4.054,23.3c-2.347,14.079,3.467,28.356,15,36.826c4.111,2.977,8.653,5.006,13.383,6.12
	c0.093,0.022,0.187,0.043,0.28,0.064c0.712,0.162,1.429,0.3,2.149,0.42c0.436,0.075,0.873,0.138,1.311,0.196
	c0.417,0.056,0.836,0.104,1.256,0.146c0.644,0.064,1.289,0.111,1.936,0.144c0.286,0.014,0.572,0.025,0.858,0.033
	c0.342,0.009,0.683,0.039,1.025,0.039c4.275,0,8.598-0.737,12.744-2.221c1.652-0.583,3.276-1.268,4.847-2.083l39.839-20.999
	l41.115-21.636l82.235-43.244l56.373-29.619l70.298,36.936l149.363,78.562c0.67,0.348,1.348,0.672,2.031,0.978
	c0.008,0.003,0.016,0.008,0.023,0.011c0.176,0.079,0.355,0.145,0.533,0.221c4.806,2.074,9.924,3.095,14.968,3.095
	c0.333,0,0.664-0.029,0.997-0.038c0.326-0.009,0.652-0.021,0.979-0.038c0.58-0.03,1.157-0.07,1.734-0.127
	c0.511-0.05,1.02-0.108,1.526-0.178c0.346-0.048,0.69-0.098,1.034-0.155c0.776-0.128,1.55-0.276,2.316-0.453
	c0.066-0.016,0.132-0.029,0.197-0.045c4.613-1.089,9.032-3.063,13.078-5.943c0.098-0.068,0.2-0.127,0.297-0.196
	c4.983-3.664,8.902-8.411,11.558-13.758c2.572-5.167,3.94-10.894,3.939-16.742c0.005-2.099-0.146-4.212-0.502-6.325l-27.928-163.104
	l-14.018-81.463l27.59-26.907L831.447,342.834z"/>
</svg>
