<?xml version="1.0" encoding="utf-8"?>
<!-- Generator: Adobe Illustrator 15.1.0, SVG Export Plug-In . SVG Version: 6.00 Build 0)  -->
<!DOCTYPE svg PUBLIC "-//W3C//DTD SVG 1.1//EN" "http://www.w3.org/Graphics/SVG/1.1/DTD/svg11.dtd">
<svg version="1.1" id="Layer_1" xmlns="http://www.w3.org/2000/svg" xmlns:xlink="http://www.w3.org/1999/xlink" x="0px" y="0px"
	 width="60.9px" height="98px" viewBox="0 0 60.9 98" enable-background="new 0 0 60.9 98" xml:space="preserve">
<path fill="#FFFFFF" d="M30.45,0C13.66,0,0,13.66,0,30.447c0,4.252,0.878,8.299,2.457,11.979c0.041,0.133,0.07,0.268,0.13,0.395
	l25.347,53.596c0.457,0.965,1.431,1.584,2.5,1.584c1.07,0,2.048-0.619,2.504-1.584L58.283,42.82c0.025-0.051,0.03-0.105,0.052-0.16
	c1.644-3.74,2.565-7.869,2.565-12.213C60.9,13.66,47.24,0,30.45,0z M30.45,49.365c-10.429,0-18.915-8.486-18.915-18.918
	c0-10.428,8.486-18.912,18.915-18.912s18.915,8.484,18.915,18.912C49.365,40.879,40.879,49.365,30.45,49.365z"/>
</svg>
