<?xml version="1.0" encoding="utf-8"?>
<!-- Generator: Adobe Illustrator 15.1.0, SVG Export Plug-In . SVG Version: 6.00 Build 0)  -->
<!DOCTYPE svg PUBLIC "-//W3C//DTD SVG 1.1//EN" "http://www.w3.org/Graphics/SVG/1.1/DTD/svg11.dtd">
<svg version="1.1" id="blackcircleicon46" xmlns="http://www.w3.org/2000/svg" xmlns:xlink="http://www.w3.org/1999/xlink" x="0px"
	 y="0px" width="246.904px" height="333.333px" viewBox="0 0 246.904 333.333" enable-background="new 0 0 246.904 333.333"
	 xml:space="preserve">
<g id="element">
	<path fill="#FFFFFF" d="M240.583,100.768c-0.248-8.499-7.406-15.453-15.909-15.453H22.23c-8.502,0-15.661,6.954-15.908,15.453
		L0.006,317.88c-0.247,8.498,6.507,15.452,15.01,15.452h216.871c8.503,0,15.257-6.954,15.01-15.452L240.583,100.768z"/>
	<path fill="#FFFFFF" d="M58.772,106.591c-4.013-43.297,9.555-79.518,36.294-96.888c18.456-11.99,40.577-12.922,59.172-2.495
		c26.862,15.062,41.547,50.089,40.289,96.1l-16.483-0.451c1.085-39.681-10.532-69.301-31.87-81.266
		c-13.348-7.485-28.704-6.777-42.124,1.94c-21.507,13.972-32.296,44.453-28.858,81.539L58.772,106.591z"/>
	<circle cx="186.285" cy="118.197" r="12.368"/>
	<circle cx="66.981" cy="118.197" r="12.367"/>
</g>
</svg>
