<?xml version="1.0" encoding="utf-8"?>
<!-- Generator: Adobe Illustrator 15.1.0, SVG Export Plug-In . SVG Version: 6.00 Build 0)  -->
<!DOCTYPE svg PUBLIC "-//W3C//DTD SVG 1.1//EN" "http://www.w3.org/Graphics/SVG/1.1/DTD/svg11.dtd">
<svg version="1.1" id="Layer_1" xmlns="http://www.w3.org/2000/svg" xmlns:xlink="http://www.w3.org/1999/xlink" x="0px" y="0px"
	 width="67px" height="102.161px" viewBox="0 0 67 102.161" enable-background="new 0 0 67 102.161" xml:space="preserve">
<rect x="28.263" y="30.913" fill="#FFFFFF" width="10.473" height="10.475"/>
<rect x="28.263" y="47.327" fill="#FFFFFF" width="10.473" height="10.473"/>
<rect x="13.355" y="14.499" fill="#FFFFFF" width="10.473" height="10.473"/>
<rect x="28.263" y="63.741" fill="#FFFFFF" width="10.473" height="10.473"/>
<rect x="13.355" y="47.327" fill="#FFFFFF" width="10.473" height="10.473"/>
<rect x="13.355" y="63.741" fill="#FFFFFF" width="10.473" height="10.473"/>
<rect x="13.355" y="30.913" fill="#FFFFFF" width="10.473" height="10.475"/>
<path fill="#FFFFFF" d="M9.064,102.161C4.066,102.161,0,98.095,0,93.097V9.068C0,4.068,4.066,0,9.064,0h48.867
	C62.932,0,67,4.068,67,9.068v84.029c0,4.998-4.068,9.064-9.068,9.064H9.064z M61.24,9.068c0-1.824-1.486-3.309-3.309-3.309H9.064
	c-1.822,0-3.305,1.485-3.305,3.309v84.029c0,1.822,1.482,3.304,3.305,3.304h18.682V85.68h11.507v10.721h18.678
	c1.823,0,3.309-1.482,3.309-3.304V9.068z"/>
<rect x="28.263" y="14.499" fill="#FFFFFF" width="10.473" height="10.473"/>
<rect x="43.169" y="47.327" fill="#FFFFFF" width="10.475" height="10.473"/>
<rect x="43.169" y="14.499" fill="#FFFFFF" width="10.475" height="10.473"/>
<rect x="43.169" y="63.741" fill="#FFFFFF" width="10.475" height="10.473"/>
<rect x="43.169" y="30.913" fill="#FFFFFF" width="10.475" height="10.475"/>
</svg>
