<?xml version="1.0" encoding="utf-8"?>
<!-- Generator: Adobe Illustrator 15.1.0, SVG Export Plug-In . SVG Version: 6.00 Build 0)  -->
<!DOCTYPE svg PUBLIC "-//W3C//DTD SVG 1.1//EN" "http://www.w3.org/Graphics/SVG/1.1/DTD/svg11.dtd">
<svg version="1.1" id="Layer_1" xmlns="http://www.w3.org/2000/svg" xmlns:xlink="http://www.w3.org/1999/xlink" x="0px" y="0px"
	 width="356px" height="309.562px" viewBox="0 0 356 309.562" enable-background="new 0 0 356 309.562" xml:space="preserve">
<path fill="#FFFFFF" d="M37.937,304c0,3.06,2.503,5.562,5.562,5.562H70.57c3.059,0,5.562-2.503,5.562-5.562v-5.307H37.937V304z
	 M279.868,298.693V304c0,3.06,2.503,5.562,5.562,5.562h27.07c3.06,0,5.562-2.503,5.562-5.562v-5.307H279.868z M228.219,0H126.61
	c-3.06,0-5.562,2.503-5.562,5.562v24.95c0,3.059,1.269,5.562,2.818,5.562c1.55,0,2.818,2.503,2.818,5.562v8.831
	c0,0.911,0.243,1.761,0.636,2.521h10.001c0.393-0.761,0.636-1.61,0.636-2.521v-8.831c0-3.06,1.268-5.562,2.818-5.562
	c1.55,0,2.818-2.503,2.818-5.562v-3.53c0-3.06,2.503-5.562,5.562-5.562h56.515c3.06,0,5.562,2.503,5.562,5.562v3.53
	c0,3.059,1.269,5.562,2.818,5.562c1.551,0,2.818,2.503,2.818,5.562v8.831c0,0.911,0.243,1.761,0.636,2.521h10.002
	c0.393-0.761,0.636-1.61,0.636-2.521v-8.831c0-3.06,1.269-5.562,2.818-5.562s2.818-2.503,2.818-5.562V5.562
	C233.781,2.503,231.278,0,228.219,0z"/>
<path fill="#FFFFFF" d="M0,90.998V260.84c0,15.297,12.516,27.812,27.812,27.812h55.79V63.186h-55.79
	C12.516,63.186,0,75.701,0,90.998z M106.724,288.652h142.548V63.186H106.724V288.652z M328.188,63.186h-55.422v225.467h55.422
	c15.297,0,27.812-12.516,27.812-27.812V90.998C356,75.701,343.484,63.186,328.188,63.186z"/>
</svg>
