<?xml version="1.0" encoding="utf-8"?>
<!-- Generator: Adobe Illustrator 15.1.0, SVG Export Plug-In . SVG Version: 6.00 Build 0)  -->
<!DOCTYPE svg PUBLIC "-//W3C//DTD SVG 1.1//EN" "http://www.w3.org/Graphics/SVG/1.1/DTD/svg11.dtd">
<svg version="1.1" id="Layer_1" xmlns="http://www.w3.org/2000/svg" xmlns:xlink="http://www.w3.org/1999/xlink" x="0px" y="0px"
	 width="33.167px" height="27.062px" viewBox="1.302 0 33.167 27.062" enable-background="new 1.302 0 33.167 27.062"
	 xml:space="preserve">
<path fill="#FFFFFF" d="M30.992,11.891c-0.002-0.036-1.403-0.111-1.403-0.111c0.077,0.535,0.116,1.083,0.122,1.639
	c-0.741,4.107-7.569,2.958-7.569,2.958l0.146,0.492c0,0,4.316,1.57,6.925,0.055c-1.419,4.703-5.688,8.174-10.798,8.4l-0.018-0.096
	c-0.086-0.581-0.314-0.642-0.491-1.135c1.363-1.446,3.101-3.282,3.6-5.191c0.218-0.83,0.373-1.726,0.223-2.554
	c-0.047-0.268-0.114-0.479-0.21-0.651c3.529,0.032,6.271-0.688,6.634-4.241c-1.818,0-2.597-0.044-2.597,0.019
	c-1.117,6.505-11.304-0.873-19.478,2.969c-0.024-0.312-0.036-0.624-0.036-0.941c0-6.54,5.3-11.838,11.835-11.838
	c5.209,0,9.631,3.364,11.213,8.037L30.5,9.58c-1.673-5.386-6.691-9.294-12.625-9.294c-7.298,0-13.213,5.917-13.213,13.215
	s5.915,13.211,13.213,13.211c7.301,0,13.217-5.914,13.217-13.211C31.091,12.956,31.056,12.417,30.992,11.891z M20.246,16.23
	c0.249,0,0.452,0.203,0.452,0.453c0,0.251-0.203,0.452-0.452,0.452c-0.246,0-0.454-0.201-0.454-0.452
	C19.792,16.434,20,16.23,20.246,16.23z M20.239,17.963c0.252,0,0.453,0.201,0.453,0.453c0,0.248-0.201,0.449-0.453,0.449
	c-0.249,0-0.452-0.201-0.452-0.449C19.786,18.164,19.99,17.963,20.239,17.963z M19.454,19.67c0.251,0,0.452,0.203,0.452,0.451
	c0,0.252-0.201,0.451-0.452,0.451c-0.252,0-0.452-0.199-0.452-0.451C19.002,19.873,19.202,19.67,19.454,19.67z M13.869,20.156
	c-1.324,0.756-3.117,1.377-4.652,1.406c-3.451-3.971,3.385-5.298,5.566-5.187l-0.173-0.393c0,0-5.619-0.271-7.7,1.983
	c-0.154-0.381-0.29-0.771-0.404-1.172c2.093-1.5,5.064-1.666,8.145-1.521C15.928,16.756,15.796,19.056,13.869,20.156z
	 M10.794,12.528c-0.492,0-0.716,0.051-0.716,0.051c0.62-3.999,3.925-7.132,7.991-7.543c-2.99,0.948-5.435,3.321-6.302,6.535
	c-0.087,0.324-0.155,0.648-0.205,0.973C11.564,12.542,11.345,12.528,10.794,12.528z M18.744,4.015c-5.043,0-9.181,3.822-9.574,8.683
	c0,0-0.284,0.011-0.744,0.102c-0.462,0.09-0.727,0.192-0.727,0.192c0.25-5.459,4.827-9.806,10.438-9.806
	c4.485,0,8.312,2.78,9.793,6.685l-0.29,0.012C26.205,6.437,22.766,4.015,18.744,4.015z M34.469,10.779
	c0,0.443-0.157,0.803-0.354,0.803c-0.189,0-0.351-0.359-0.351-0.803s0.159-0.802,0.351-0.802
	C34.311,9.977,34.469,10.334,34.469,10.779z M33.377,10.76c0,0.437,0.259,0.805,0.259,0.805h-1.045c0,0-0.263-0.282-0.263-0.827
	c0-0.522,0.263-0.803,0.263-0.803h1.045C33.636,9.934,33.377,10.304,33.377,10.76z M28.595,10.236l3.577-0.173
	c0,0-0.243,0.293-0.243,0.687c0,0.392,0.243,0.73,0.243,0.73l-3.577-0.175c0,0-0.205-0.089-0.205-0.543
	C28.39,10.304,28.595,10.236,28.595,10.236z M15.752,13.097c-1.295-0.146-2.251-0.357-3.445-0.384
	c0.648-0.382,1.934-0.842,3.196-0.842c1.24,0,2.894,1.129,4.094,1.393C18.442,13.459,17.048,13.242,15.752,13.097z M19.05,9.847
	c-1.691,1.054-2.062,1.446-3.144,1.627l-0.635-0.116c0.603-0.893,1.32-2.091,2.167-2.818c0.625-0.538,1.896-1.48,2.854-1.502
	c0.044,0.499-0.117,1.267,0.565,0.958c0.235-0.106,0.279-0.675,0.495-0.851c0.222-0.174,0.676-0.194,0.785-0.086
	C21.693,8.271,20.836,8.737,19.05,9.847z M20.692,13.479l-3.205-1.761l1.258-0.689l0.938,0.251l-0.438-0.753l1.383-0.941
	l0.562,2.196l-0.499,0.065L20.692,13.479L20.692,13.479z M21.533,10.488h6.503c0,0-0.064,0.116-0.064,0.291
	c0,0.174,0.064,0.273,0.064,0.273h-6.4L21.533,10.488z"/>
</svg>
