<?xml version="1.0" encoding="utf-8"?>
<!-- Generator: Adobe Illustrator 15.1.0, SVG Export Plug-In . SVG Version: 6.00 Build 0)  -->
<!DOCTYPE svg PUBLIC "-//W3C//DTD SVG 1.1//EN" "http://www.w3.org/Graphics/SVG/1.1/DTD/svg11.dtd">
<svg version="1.1" id="ENG" xmlns="http://www.w3.org/2000/svg" xmlns:xlink="http://www.w3.org/1999/xlink" x="0px" y="0px"
	 width="126.069px" height="26.427px" viewBox="0 0 126.069 26.427" enable-background="new 0 0 126.069 26.427"
	 xml:space="preserve">
<g>
	<path fill-rule="evenodd" clip-rule="evenodd" fill="#FFFFFF" d="M41.112,11.29c0-0.794-0.048-1.618-0.172-2.379
		c-0.575-0.326-1.275-0.575-2.441-0.575c-2.006,0-3.467,0.824-3.467,2.799c0,3.187,4.82,2.984,4.82,5.612
		c0,1.041-0.652,1.727-1.633,1.727c-1.99,0-2.503-2.18-2.721-3.11l-0.73,0.154c0,1.245,0.078,1.943,0.45,2.924
		c0.498,0.264,1.384,0.621,2.736,0.621c1.866,0,3.825-0.809,3.825-3.016c0-3.327-4.975-3.173-4.975-5.565
		c0-0.965,0.668-1.556,1.555-1.556c1.693,0,1.989,1.57,2.191,2.364H41.112z"/>
	<path fill-rule="evenodd" clip-rule="evenodd" fill="#FFFFFF" d="M42.027,18.83h3.405v-0.403l-0.84-0.156
		c-0.265-0.047-0.404-0.125-0.404-0.357c0-0.107,0.14-0.621,0.312-1.104l0.605-1.696c0.296-0.14,1.089-0.2,1.462-0.2
		c0.467,0,1.213,0.061,1.555,0.187l0.855,2.347c0.077,0.219,0.125,0.373,0.125,0.529c0,0.217-0.219,0.311-0.529,0.359l-0.622,0.092
		v0.403h4.4v-0.403l-0.39-0.078c-0.543-0.125-0.73-0.529-0.98-1.197l-3.295-8.769c-0.311,0.031-0.544,0.063-0.932,0.186
		l-3.328,8.395c-0.436,1.072-0.653,1.259-1.011,1.371l-0.389,0.092V18.83z M46.567,10.823h0.031l1.29,3.577
		c-0.435-0.048-0.979-0.078-1.306-0.078c-0.342,0-0.887,0.03-1.275,0.092L46.567,10.823z"/>
	<path fill-rule="evenodd" clip-rule="evenodd" fill="#FFFFFF" d="M55.975,10.855c0-1.54,0-1.726,0.73-1.835l0.374-0.047V8.569
		h-4.23v0.404l0.373,0.047c0.732,0.109,0.732,0.295,0.732,1.848v5.677c0,1.538,0,1.725-0.732,1.835l-0.373,0.046v0.403h4.23v-0.403
		l-0.374-0.046c-0.73-0.11-0.73-0.298-0.73-1.835V10.855z"/>
	<path fill-rule="evenodd" clip-rule="evenodd" fill="#FFFFFF" d="M58.46,18.83h3.482v-0.403l-0.451-0.046
		c-0.824-0.126-0.948-0.235-0.948-2.675v-4.137l6.919,7.388c0.202,0,0.637-0.079,0.808-0.127v-7.074c0-2.052,0-2.627,0.685-2.721
		l0.466-0.062V8.569h-3.481v0.404l0.45,0.047c0.825,0.093,0.948,0.202,0.948,2.736v4.182L60.372,8.46
		c-0.109,0-0.592,0.063-0.762,0.109v7.073c0,2.054,0,2.628-0.685,2.722l-0.466,0.062V18.83z"/>
	<path fill-rule="evenodd" clip-rule="evenodd" fill="#FFFFFF" d="M73.798,16.575c0,1.586,0,1.648-0.979,1.806l-0.363,0.046v0.403
		h4.646v-0.403l-0.363-0.046c-0.979-0.157-0.979-0.22-0.979-1.806V9.16h0.604c1.704,0,1.87,0.404,2.263,2.083h0.541
		c0-0.248-0.136-2.332-0.195-2.674h-8.384c-0.062,0.342-0.197,2.426-0.197,2.674h0.543c0.392-1.679,0.558-2.083,2.263-2.083h0.602
		V16.575z"/>
	<path fill-rule="evenodd" clip-rule="evenodd" fill="#FFFFFF" d="M85.023,20.867c3.001-0.591,3.515-1.601,3.515-4.96v-5.052
		c0-1.54,0-1.726,0.73-1.835l0.373-0.047V8.569h-4.229v0.404l0.371,0.047c0.732,0.109,0.732,0.295,0.732,1.835v4.71
		c0,2.783-0.016,4.26-1.586,5.021L85.023,20.867z"/>
	<path fill-rule="evenodd" clip-rule="evenodd" fill="#FFFFFF" d="M96.245,19.063c3.001,0,5.598-1.99,5.598-5.565
		c0-3.467-2.441-5.162-5.441-5.162c-2.985,0-5.582,1.991-5.582,5.565C90.819,17.368,93.261,19.063,96.245,19.063z M93.089,13.527
		c0-2.47,0.979-4.602,3.141-4.602c2.41,0,3.343,2.379,3.343,4.943c0,2.473-0.98,4.605-3.155,4.605
		C94.021,18.474,93.089,16.093,93.089,13.527z"/>
	<path fill-rule="evenodd" clip-rule="evenodd" fill="#FFFFFF" d="M103.943,16.545c0,1.538,0,1.725-0.73,1.835l-0.374,0.046v0.403
		h4.23v-0.403l-0.373-0.046c-0.732-0.11-0.732-0.298-0.732-1.835v-2.721h4.697v2.706c0,1.553,0,1.741-0.732,1.851l-0.372,0.046
		v0.403h4.229v-0.403l-0.356-0.046c-0.748-0.11-0.748-0.298-0.748-1.851v-5.661c0-1.553,0-1.739,0.748-1.848l0.356-0.047V8.569
		h-4.229v0.404l0.372,0.047c0.732,0.109,0.732,0.295,0.732,1.848v2.256h-4.697v-2.269c0-1.54,0-1.726,0.732-1.835l0.373-0.047V8.569
		h-4.23v0.404l0.374,0.047c0.73,0.109,0.73,0.295,0.73,1.848V16.545z"/>
	<path fill-rule="evenodd" clip-rule="evenodd" fill="#FFFFFF" d="M115.108,18.83h3.483v-0.403l-0.452-0.046
		c-0.823-0.126-0.948-0.235-0.948-2.675v-4.137l6.919,7.388c0.202,0,0.638-0.079,0.809-0.127v-7.074c0-2.052,0-2.627,0.686-2.721
		l0.465-0.062V8.569h-3.484v0.404l0.452,0.047c0.825,0.093,0.949,0.202,0.949,2.736v4.182l-6.966-7.478
		c-0.106,0-0.591,0.063-0.763,0.109v7.073c0,2.054,0,2.628-0.682,2.722l-0.468,0.062V18.83z"/>
</g>
<path fill-rule="evenodd" clip-rule="evenodd" fill="#FFFFFF" d="M26.331,11.604c-0.002-0.036-1.404-0.111-1.404-0.111
	c0.077,0.535,0.117,1.083,0.122,1.639c-0.741,4.107-7.569,2.958-7.569,2.958l0.145,0.493c0,0,4.317,1.57,6.924,0.054
	c-1.419,4.703-5.686,8.173-10.797,8.401l-0.017-0.096c-0.086-0.581-0.316-0.641-0.492-1.134c1.364-1.447,3.1-3.283,3.599-5.193
	c0.218-0.829,0.373-1.724,0.223-2.553c-0.047-0.267-0.115-0.477-0.21-0.652c3.529,0.033,6.27-0.686,6.634-4.24
	c-1.82,0-2.597-0.044-2.597,0.018c-1.117,6.505-11.304-0.873-19.477,2.969c-0.025-0.312-0.037-0.624-0.037-0.941
	c0-6.54,5.3-11.838,11.835-11.838c5.209,0,9.631,3.364,11.213,8.037l1.411-0.121C24.165,3.908,19.146,0,13.212,0
	C5.915,0,0,5.917,0,13.215s5.915,13.212,13.212,13.212c7.301,0,13.217-5.915,13.217-13.212
	C26.429,12.669,26.394,12.131,26.331,11.604z M15.585,15.944c0.249,0,0.452,0.203,0.452,0.453c0,0.251-0.203,0.453-0.452,0.453
	c-0.247,0-0.455-0.202-0.455-0.453C15.13,16.147,15.338,15.944,15.585,15.944z M15.577,17.676c0.252,0,0.454,0.201,0.454,0.453
	c0,0.248-0.202,0.449-0.454,0.449c-0.249,0-0.452-0.201-0.452-0.449C15.125,17.877,15.328,17.676,15.577,17.676z M14.793,19.383
	c0.251,0,0.452,0.203,0.452,0.452c0,0.251-0.201,0.451-0.452,0.451c-0.252,0-0.453-0.2-0.453-0.451
	C14.34,19.586,14.541,19.383,14.793,19.383z M9.208,19.87c-1.325,0.756-3.118,1.377-4.653,1.406
	c-3.451-3.97,3.385-5.298,5.567-5.186l-0.173-0.392c0,0-5.619-0.272-7.7,1.984c-0.155-0.381-0.29-0.772-0.405-1.171
	c2.093-1.501,5.065-1.667,8.145-1.523C11.266,16.469,11.134,18.769,9.208,19.87z M6.132,12.241c-0.492,0-0.715,0.051-0.715,0.051
	c0.62-3.999,3.924-7.132,7.991-7.543c-2.99,0.948-5.434,3.321-6.301,6.535c-0.087,0.324-0.156,0.649-0.205,0.973
	C6.902,12.256,6.683,12.241,6.132,12.241z M14.083,3.728c-5.043,0-9.18,3.823-9.575,8.683c0,0-0.284,0.011-0.744,0.102
	c-0.462,0.089-0.726,0.192-0.726,0.192c0.25-5.459,4.827-9.806,10.437-9.806c4.486,0,8.313,2.781,9.793,6.685l-0.29,0.012
	C21.544,6.15,18.104,3.728,14.083,3.728z M29.807,10.492c0,0.443-0.157,0.803-0.354,0.803c-0.19,0-0.35-0.36-0.35-0.803
	c0-0.443,0.159-0.802,0.35-0.802C29.649,9.69,29.807,10.048,29.807,10.492z M28.715,10.474c0,0.436,0.259,0.804,0.259,0.804h-1.045
	c0,0-0.262-0.282-0.262-0.827c0-0.522,0.262-0.803,0.262-0.803h1.045C28.974,9.647,28.715,10.017,28.715,10.474z M23.933,9.949
	l3.577-0.173c0,0-0.243,0.293-0.243,0.687c0,0.391,0.243,0.73,0.243,0.73l-3.577-0.175c0,0-0.205-0.088-0.205-0.543
	C23.728,10.017,23.933,9.949,23.933,9.949z M11.09,12.81c-1.295-0.146-2.251-0.357-3.445-0.383c0.649-0.382,1.933-0.842,3.196-0.842
	c1.241,0,2.894,1.129,4.094,1.392C13.78,13.173,12.386,12.955,11.09,12.81z M14.388,9.56c-1.691,1.054-2.063,1.447-3.143,1.627
	l-0.634-0.116c0.601-0.892,1.32-2.091,2.167-2.818c0.625-0.538,1.894-1.481,2.854-1.502c0.044,0.499-0.117,1.266,0.566,0.958
	c0.236-0.107,0.28-0.675,0.496-0.851c0.221-0.174,0.675-0.194,0.785-0.086C17.031,7.985,16.174,8.45,14.388,9.56z M16.03,13.192
	l-3.206-1.76l1.258-0.69l0.939,0.251l-0.438-0.753l1.382-0.941l0.564,2.196L16.03,11.56V13.192z M16.872,10.201h6.503
	c0,0-0.065,0.116-0.065,0.291c0,0.174,0.065,0.274,0.065,0.274h-6.401L16.872,10.201z"/>
</svg>
