<?xml version="1.0" encoding="utf-8"?>
<!-- Generator: Adobe Illustrator 15.1.0, SVG Export Plug-In . SVG Version: 6.00 Build 0)  -->
<!DOCTYPE svg PUBLIC "-//W3C//DTD SVG 1.1//EN" "http://www.w3.org/Graphics/SVG/1.1/DTD/svg11.dtd">
<svg version="1.1" id="Layer_1" xmlns="http://www.w3.org/2000/svg" xmlns:xlink="http://www.w3.org/1999/xlink" x="0px" y="0px"
	 width="183.744px" height="15.845px" viewBox="0 0 183.744 15.845" enable-background="new 0 0 183.744 15.845"
	 xml:space="preserve">
<g>
	<path fill="#243B77" d="M0.286,11.512C0.045,11.408,0,11.333,0,11.001c0-0.826,0.06-1.729,0.075-1.969
		c0.015-0.226,0.06-0.391,0.181-0.391c0.135,0,0.15,0.135,0.15,0.256c0,0.194,0.061,0.511,0.135,0.766
		c0.331,1.112,1.218,1.52,2.149,1.52c1.353,0,2.014-0.917,2.014-1.715c0-0.735-0.226-1.441-1.473-2.403L2.54,6.523
		C0.887,5.23,0.316,4.177,0.316,2.96c0-1.652,1.383-2.84,3.472-2.84c0.977,0,1.608,0.15,1.999,0.255
		c0.135,0.03,0.21,0.075,0.21,0.181c0,0.195-0.06,0.631-0.06,1.804c0,0.331-0.045,0.451-0.166,0.451c-0.105,0-0.15-0.091-0.15-0.271
		c0-0.135-0.075-0.602-0.391-0.992C5.005,1.262,4.569,0.812,3.592,0.812c-1.112,0-1.789,0.646-1.789,1.548
		c0,0.69,0.346,1.217,1.593,2.165L3.817,4.84C5.62,6.238,6.282,7.245,6.282,8.673c0,0.872-0.331,1.909-1.413,2.616
		c-0.751,0.48-1.593,0.616-2.39,0.616C1.608,11.904,0.932,11.798,0.286,11.512z"/>
	<path fill="#243B77" d="M9.21,4.689c0-2.284,0-2.705-0.03-3.187C9.15,0.992,9.03,0.751,8.534,0.646
		c-0.12-0.03-0.375-0.045-0.586-0.045c-0.166,0-0.255-0.03-0.255-0.136c0-0.104,0.105-0.135,0.331-0.135
		c0.796,0,1.743,0.045,2.194,0.045c0.361,0,1.308-0.045,1.849-0.045c0.226,0,0.331,0.03,0.331,0.135c0,0.105-0.09,0.136-0.24,0.136
		c-0.166,0-0.256,0.015-0.436,0.045c-0.406,0.075-0.526,0.331-0.556,0.856c-0.03,0.481-0.03,0.902-0.03,3.187v2.104
		c0,2.18,0.436,3.097,1.172,3.697c0.677,0.556,1.368,0.616,1.879,0.616c0.662,0,1.473-0.211,2.074-0.812
		c0.827-0.827,0.872-2.18,0.872-3.728V4.689c0-2.284,0-2.705-0.03-3.187c-0.03-0.511-0.15-0.751-0.646-0.856
		c-0.12-0.03-0.375-0.045-0.541-0.045s-0.255-0.03-0.255-0.136c0-0.104,0.105-0.135,0.315-0.135c0.767,0,1.713,0.045,1.729,0.045
		c0.18,0,1.127-0.045,1.713-0.045c0.21,0,0.315,0.03,0.315,0.135c0,0.105-0.09,0.136-0.271,0.136c-0.165,0-0.255,0.015-0.436,0.045
		C18.62,0.721,18.5,0.977,18.47,1.503c-0.03,0.481-0.03,0.902-0.03,3.187v1.607c0,1.668-0.165,3.441-1.428,4.524
		c-1.067,0.916-2.149,1.082-3.126,1.082c-0.797,0-2.24-0.046-3.337-1.037C9.781,10.175,9.21,9.063,9.21,6.883V4.689z"/>
	<path fill="#243B77" d="M22.658,4.689c0-2.284,0-2.705-0.03-3.187c-0.03-0.511-0.15-0.751-0.646-0.856
		c-0.12-0.03-0.376-0.045-0.586-0.045c-0.166,0-0.256-0.03-0.256-0.136c0-0.104,0.105-0.135,0.331-0.135
		c0.797,0,1.744,0.045,2.059,0.045c0.511,0,1.653-0.045,2.12-0.045c0.947,0,1.954,0.09,2.765,0.646
		c0.421,0.286,1.022,1.052,1.022,2.059c0,1.112-0.466,2.134-1.984,3.367c1.338,1.684,2.375,3.021,3.262,3.953
		c0.842,0.872,1.458,0.978,1.683,1.021c0.166,0.03,0.301,0.045,0.421,0.045c0.121,0,0.181,0.045,0.181,0.12
		c0,0.12-0.105,0.15-0.286,0.15h-1.428c-0.842,0-1.218-0.075-1.608-0.285c-0.646-0.346-1.217-1.053-2.059-2.21
		c-0.601-0.826-1.292-1.848-1.488-2.074c-0.075-0.09-0.166-0.104-0.271-0.104l-1.308-0.03c-0.075,0-0.121,0.03-0.121,0.12v0.21
		c0,1.397,0,2.585,0.075,3.216c0.045,0.437,0.135,0.767,0.586,0.827c0.225,0.029,0.556,0.06,0.736,0.06c0.12,0,0.18,0.045,0.18,0.12
		c0,0.105-0.105,0.15-0.3,0.15c-0.872,0-1.984-0.045-2.209-0.045c-0.286,0-1.232,0.045-1.833,0.045c-0.196,0-0.301-0.045-0.301-0.15
		c0-0.075,0.06-0.12,0.24-0.12c0.226,0,0.406-0.029,0.542-0.06c0.3-0.062,0.375-0.393,0.436-0.827
		c0.075-0.631,0.075-1.818,0.075-3.201V4.689z M24.431,5.876c0,0.166,0.03,0.227,0.135,0.271c0.316,0.104,0.767,0.149,1.143,0.149
		c0.601,0,0.796-0.06,1.067-0.255c0.451-0.331,0.887-1.021,0.887-2.255c0-2.134-1.413-2.75-2.299-2.75
		c-0.376,0-0.646,0.015-0.797,0.062c-0.105,0.029-0.135,0.09-0.135,0.21L24.431,5.876L24.431,5.876z"/>
	<path fill="#243B77" d="M40.388,7.334c0,1.924,0,2.961,0.315,3.231c0.255,0.226,0.646,0.33,1.819,0.33
		c0.796,0,1.383-0.016,1.758-0.42c0.181-0.196,0.361-0.616,0.391-0.902c0.015-0.135,0.045-0.226,0.166-0.226
		c0.105,0,0.12,0.074,0.12,0.256c0,0.165-0.105,1.292-0.225,1.729c-0.09,0.33-0.166,0.405-0.947,0.405
		c-2.164,0-3.156-0.09-4.374-0.09c-0.346,0-1.292,0.045-1.894,0.045c-0.196,0-0.301-0.045-0.301-0.15c0-0.075,0.06-0.12,0.24-0.12
		c0.226,0,0.406-0.029,0.542-0.06c0.3-0.062,0.375-0.393,0.436-0.827c0.075-0.631,0.075-1.818,0.075-3.201V4.689
		c0-2.284,0-2.705-0.03-3.187c-0.03-0.511-0.15-0.751-0.646-0.856c-0.12-0.03-0.301-0.045-0.496-0.045
		c-0.165,0-0.255-0.03-0.255-0.136c0-0.104,0.105-0.135,0.331-0.135c0.707,0,1.653,0.045,2.059,0.045
		c0.361,0,1.458-0.045,2.044-0.045c0.21,0,0.316,0.03,0.316,0.135c0,0.105-0.09,0.136-0.271,0.136c-0.166,0-0.406,0.015-0.586,0.045
		c-0.406,0.075-0.526,0.331-0.556,0.856c-0.03,0.481-0.03,0.902-0.03,3.187L40.388,7.334L40.388,7.334z"/>
	<path fill="#243B77" d="M48.5,7.77c-0.075,0-0.105,0.029-0.135,0.121l-0.812,2.148c-0.15,0.376-0.226,0.736-0.226,0.917
		c0,0.271,0.135,0.466,0.602,0.466h0.225c0.181,0,0.226,0.03,0.226,0.12c0,0.12-0.09,0.15-0.255,0.15
		c-0.481,0-1.127-0.045-1.593-0.045c-0.166,0-0.992,0.045-1.773,0.045c-0.195,0-0.286-0.03-0.286-0.15c0-0.09,0.06-0.12,0.18-0.12
		c0.135,0,0.346-0.015,0.466-0.029c0.691-0.091,0.977-0.602,1.277-1.354l3.772-9.438C50.349,0.165,50.439,0,50.59,0
		c0.135,0,0.226,0.135,0.376,0.481c0.36,0.826,2.765,6.958,3.727,9.243c0.571,1.353,1.007,1.562,1.323,1.639
		c0.226,0.045,0.451,0.06,0.631,0.06c0.12,0,0.195,0.017,0.195,0.12c0,0.12-0.135,0.15-0.691,0.15c-0.541,0-1.638,0-2.841-0.03
		c-0.271-0.015-0.451-0.015-0.451-0.12c0-0.09,0.06-0.12,0.21-0.135c0.105-0.03,0.21-0.166,0.135-0.346l-1.203-3.188
		c-0.03-0.075-0.075-0.104-0.15-0.104H48.5z M51.567,7.019c0.075,0,0.09-0.045,0.075-0.09l-1.353-3.713
		c-0.015-0.06-0.03-0.135-0.075-0.135s-0.075,0.075-0.09,0.135l-1.383,3.697c-0.015,0.061,0,0.105,0.06,0.105H51.567z"/>
	<path fill="#243B77" d="M62.924,4.689c0-2.284,0-2.705-0.03-3.187c-0.03-0.511-0.15-0.751-0.646-0.856
		c-0.12-0.03-0.376-0.045-0.586-0.045c-0.166,0-0.256-0.03-0.256-0.136c0-0.104,0.105-0.135,0.331-0.135
		c0.797,0,1.744,0.045,2.044,0.045c0.736,0,1.322-0.045,1.833-0.045c2.72,0,3.201,1.458,3.201,2.254c0,1.232-0.706,1.97-1.533,2.63
		c1.232,0.421,2.735,1.488,2.735,3.246c0,1.608-1.248,3.276-4.013,3.276c-0.36,0-1.729-0.09-2.179-0.09
		c-0.346,0-1.292,0.045-1.894,0.045c-0.196,0-0.301-0.045-0.301-0.15c0-0.075,0.06-0.12,0.24-0.12c0.226,0,0.406-0.029,0.542-0.06
		c0.3-0.062,0.375-0.393,0.436-0.827c0.075-0.631,0.075-1.818,0.075-3.201L62.924,4.689L62.924,4.689z M64.728,4.945
		c0,0.12,0.045,0.149,0.105,0.165c0.135,0.03,0.361,0.045,0.707,0.045c0.496,0,0.827-0.061,1.082-0.285
		c0.391-0.315,0.616-0.856,0.616-1.593c0-1.007-0.586-2.33-1.878-2.33c-0.21,0-0.346,0-0.496,0.03
		c-0.105,0.029-0.135,0.09-0.135,0.256L64.728,4.945L64.728,4.945z M66.712,6.147c-0.315-0.227-0.661-0.331-1.248-0.361
		c-0.271-0.015-0.421-0.015-0.646-0.015c-0.061,0-0.09,0.029-0.09,0.104v3.562c0,0.991,0.045,1.247,0.526,1.441
		c0.406,0.165,0.751,0.182,1.097,0.182c0.676,0,1.819-0.361,1.819-1.924C68.17,8.206,67.854,6.943,66.712,6.147z"/>
	<path fill="#243B77" d="M74.223,7.77c-0.075,0-0.105,0.029-0.135,0.121l-0.812,2.148c-0.15,0.376-0.226,0.736-0.226,0.917
		c0,0.271,0.135,0.466,0.602,0.466h0.225c0.181,0,0.226,0.03,0.226,0.12c0,0.12-0.09,0.15-0.255,0.15
		c-0.481,0-1.127-0.045-1.593-0.045c-0.166,0-0.992,0.045-1.773,0.045c-0.195,0-0.286-0.03-0.286-0.15c0-0.09,0.06-0.12,0.18-0.12
		c0.135,0,0.346-0.015,0.466-0.029c0.691-0.091,0.977-0.602,1.277-1.354l3.772-9.438C76.072,0.165,76.162,0,76.312,0
		c0.135,0,0.226,0.135,0.376,0.481c0.36,0.826,2.765,6.958,3.727,9.243c0.571,1.353,1.007,1.562,1.323,1.639
		c0.226,0.045,0.451,0.06,0.631,0.06c0.12,0,0.195,0.017,0.195,0.12c0,0.12-0.135,0.15-0.691,0.15c-0.541,0-1.638,0-2.841-0.03
		c-0.271-0.015-0.451-0.015-0.451-0.12c0-0.09,0.06-0.12,0.21-0.135c0.105-0.03,0.21-0.166,0.135-0.346l-1.203-3.188
		C77.695,7.8,77.65,7.77,77.575,7.77H74.223z M77.29,7.019c0.075,0,0.09-0.045,0.075-0.09l-1.353-3.713
		c-0.015-0.06-0.03-0.135-0.075-0.135s-0.075,0.075-0.09,0.135l-1.383,3.697c-0.015,0.061,0,0.105,0.06,0.105H77.29z"/>
	<path fill="#243B77" d="M84.14,4.689c0-2.284,0-2.705-0.03-3.187c-0.03-0.511-0.181-0.767-0.511-0.842
		c-0.166-0.045-0.361-0.06-0.541-0.06c-0.15,0-0.241-0.03-0.241-0.15c0-0.09,0.121-0.12,0.361-0.12c0.571,0,1.518,0.045,1.954,0.045
		c0.375,0,1.262-0.045,1.833-0.045c0.195,0,0.315,0.03,0.315,0.12c0,0.12-0.09,0.15-0.24,0.15s-0.271,0.015-0.451,0.045
		c-0.406,0.075-0.526,0.331-0.556,0.856c-0.03,0.481-0.03,0.902-0.03,3.187v2.646c0,1.458,0,2.646,0.06,3.291
		c0.045,0.406,0.15,0.677,0.601,0.737c0.21,0.029,0.542,0.06,0.767,0.06c0.166,0,0.241,0.045,0.241,0.12
		c0,0.105-0.121,0.15-0.286,0.15c-0.992,0-1.939-0.045-2.345-0.045c-0.346,0-1.292,0.045-1.894,0.045
		c-0.196,0-0.301-0.045-0.301-0.15c0-0.075,0.06-0.12,0.24-0.12c0.226,0,0.406-0.029,0.542-0.06c0.3-0.062,0.391-0.316,0.436-0.752
		C84.14,9.98,84.14,8.792,84.14,7.334V4.689z"/>
	<path fill="#243B77" d="M90.932,4.689c0-2.284,0-2.705-0.03-3.187c-0.03-0.511-0.15-0.751-0.646-0.856
		c-0.12-0.03-0.376-0.045-0.586-0.045c-0.166,0-0.256-0.03-0.256-0.136c0-0.104,0.105-0.135,0.331-0.135
		c0.796,0,1.744,0.045,2.165,0.045c0.479,0,3.472,0,3.758-0.015c0.285-0.03,0.524-0.061,0.646-0.09
		c0.076-0.016,0.166-0.062,0.242-0.062c0.074,0,0.09,0.062,0.09,0.135c0,0.105-0.076,0.286-0.121,0.978
		c-0.016,0.15-0.045,0.812-0.074,0.992c-0.016,0.075-0.045,0.165-0.15,0.165s-0.136-0.075-0.136-0.21c0-0.105-0.015-0.36-0.09-0.541
		c-0.104-0.271-0.255-0.451-1.007-0.541c-0.256-0.03-1.834-0.061-2.135-0.061c-0.074,0-0.104,0.045-0.104,0.15V5.08
		c0,0.105,0.015,0.165,0.104,0.165c0.33,0,2.06,0,2.404-0.03c0.359-0.029,0.586-0.074,0.723-0.226
		c0.104-0.12,0.164-0.195,0.239-0.195c0.062,0,0.104,0.03,0.104,0.12s-0.074,0.331-0.119,1.097c-0.03,0.302-0.061,0.902-0.061,1.008
		c0,0.121,0,0.286-0.136,0.286c-0.104,0-0.136-0.061-0.136-0.136c-0.016-0.149-0.016-0.346-0.061-0.541
		c-0.074-0.301-0.285-0.525-0.842-0.586c-0.285-0.029-1.773-0.045-2.135-0.045c-0.075,0-0.09,0.061-0.09,0.15v1.188
		c0,0.512-0.016,1.895,0,2.329c0.029,1.037,0.271,1.263,1.804,1.263c0.392,0,1.021,0,1.412-0.18
		c0.392-0.181,0.571-0.496,0.677-1.112c0.03-0.166,0.061-0.226,0.165-0.226c0.12,0,0.12,0.12,0.12,0.271
		c0,0.346-0.12,1.366-0.195,1.668c-0.104,0.391-0.24,0.391-0.812,0.391c-2.271,0-3.276-0.09-4.163-0.09
		c-0.346,0-1.293,0.045-1.894,0.045c-0.196,0-0.301-0.045-0.301-0.15c0-0.075,0.06-0.12,0.24-0.12c0.226,0,0.406-0.029,0.542-0.06
		c0.3-0.062,0.375-0.392,0.436-0.827c0.075-0.631,0.075-1.818,0.075-3.201L90.932,4.689L90.932,4.689z"/>
</g>
<g>
	<path fill="#243B77" d="M109.084,9.604c0-0.062,0-0.09-0.046-0.09c-0.061,0-0.301,0.346-0.751,0.87
		c-0.571,0.661-1.384,1.443-2.194,1.443c-0.045,0-0.962-0.091-0.962-1.188c0-2.706,2.69-5.606,4.043-5.606
		c0.812,0,0.781,0.466,0.962,0.466c0.045,0,0.977-3.532,0.977-3.622c0-0.391-0.209-0.405-0.51-0.405c-0.24,0-0.467,0-0.467-0.227
		c0-0.18,0.182-0.225,0.467-0.255c0.916-0.09,1.578-0.21,1.684-0.21c0.09,0,0.227,0,0.227,0.135s-0.046,0.301-2.375,8.507
		c-0.182,0.633-0.257,0.962-0.257,1.037c0,0.105,0.062,0.227,0.166,0.227c0.616,0,1.277-1.488,1.562-1.488
		c0.092,0,0.105,0.091,0.105,0.166c0,0.195-1.503,2.465-2.51,2.465c-0.361,0-0.557-0.226-0.557-0.541
		C108.647,10.836,109.084,9.86,109.084,9.604z M106.829,10.881c0.631,0,1.578-0.917,2.193-1.817
		c0.315-0.451,0.902-2.585,0.902-3.006c0-0.331-0.271-0.632-0.736-0.632c-1.263,0-2.887,3.593-2.887,4.779
		C106.304,10.521,106.453,10.881,106.829,10.881z"/>
	<path fill="#243B77" d="M117.243,6.072c0,0.722-0.633,1.894-3.457,2.435c-0.061,0.331-0.182,0.872-0.182,1.232
		c0,0.632,0.227,1.263,0.963,1.263c0.826,0,1.533-1.142,1.639-1.142c0.135,0,0.182,0.104,0.182,0.195
		c0,0.119-1.174,1.772-2.451,1.772c-1.143,0-1.442-0.917-1.442-1.895c0-2.841,1.85-4.899,3.502-4.899
		C116.702,5.035,117.243,5.335,117.243,6.072z M116.222,6.057c0-0.271-0.136-0.632-0.48-0.632c-0.812,0-1.473,1.112-1.909,2.705
		C115.71,7.905,116.222,6.598,116.222,6.057z"/>
</g>
<g>
	<path fill="#243B77" d="M126.769,7.334c0,1.443,0,2.57,0.074,3.201c0.045,0.437,0.137,0.767,0.586,0.827
		c0.211,0.029,0.543,0.06,0.752,0.06c0.195,0,0.256,0.045,0.256,0.12c0,0.105-0.104,0.15-0.33,0.15
		c-0.947,0-1.895-0.045-2.285-0.045c-0.389,0-1.338,0.045-1.908,0.045c-0.21,0-0.314-0.03-0.314-0.15c0-0.075,0.06-0.12,0.226-0.12
		c0.226,0,0.405-0.029,0.541-0.06c0.301-0.062,0.376-0.393,0.436-0.827c0.075-0.631,0.075-1.758,0.075-3.201V4.689
		c0-2.284,0-2.705-0.029-3.187c-0.031-0.511-0.15-0.751-0.646-0.856c-0.12-0.03-0.375-0.045-0.586-0.045
		c-0.15,0-0.256-0.03-0.256-0.12c0-0.121,0.121-0.15,0.347-0.15c0.78,0,1.729,0.045,2.164,0.045c0.571,0,3.622,0,3.968-0.015
		c0.285-0.015,0.467-0.015,0.616-0.061c0.09-0.029,0.165-0.09,0.239-0.09c0.062,0,0.105,0.062,0.105,0.136
		c0,0.104-0.074,0.285-0.119,0.677c-0.017,0.149-0.046,1.037-0.076,1.217c-0.016,0.12-0.045,0.21-0.149,0.21
		s-0.136-0.075-0.149-0.241c0-0.12,0-0.359-0.091-0.57c-0.104-0.211-0.421-0.437-0.991-0.451l-2.314-0.045
		c-0.092,0-0.137,0.045-0.137,0.21V5.11c0,0.09,0.017,0.135,0.105,0.135L128.8,5.23c0.256,0,0.467,0,0.678-0.016
		c0.285-0.015,0.494-0.074,0.646-0.271c0.075-0.09,0.104-0.15,0.194-0.15c0.062,0,0.092,0.045,0.092,0.136
		c0,0.09-0.075,0.466-0.12,0.932c-0.03,0.301-0.062,0.992-0.062,1.097c0,0.135,0,0.286-0.149,0.286c-0.09,0-0.12-0.104-0.12-0.21
		c0-0.104-0.029-0.286-0.09-0.466c-0.075-0.21-0.301-0.481-0.768-0.541c-0.375-0.045-1.969-0.045-2.225-0.045
		c-0.074,0-0.105,0.03-0.105,0.135v1.217H126.769z"/>
	<path fill="#243B77" d="M133.573,4.689c0-2.284,0-2.705-0.03-3.187c-0.028-0.511-0.149-0.751-0.646-0.856
		c-0.121-0.03-0.377-0.045-0.588-0.045c-0.164,0-0.254-0.03-0.254-0.136c0-0.104,0.104-0.135,0.329-0.135
		c0.798,0,1.744,0.045,2.194,0.045c0.361,0,1.309-0.045,1.85-0.045c0.225,0,0.33,0.03,0.33,0.135c0,0.105-0.09,0.136-0.24,0.136
		c-0.164,0-0.256,0.015-0.437,0.045c-0.405,0.075-0.524,0.331-0.556,0.856c-0.03,0.481-0.03,0.902-0.03,3.187v2.104
		c0,2.18,0.437,3.097,1.173,3.697c0.676,0.556,1.367,0.616,1.879,0.616c0.661,0,1.473-0.211,2.073-0.812
		c0.827-0.827,0.872-2.18,0.872-3.728V4.689c0-2.284,0-2.705-0.03-3.187c-0.028-0.511-0.149-0.751-0.646-0.856
		c-0.121-0.03-0.377-0.045-0.543-0.045c-0.164,0-0.254-0.03-0.254-0.136c0-0.104,0.104-0.135,0.314-0.135
		c0.768,0,1.714,0.045,1.729,0.045c0.182,0,1.127-0.045,1.713-0.045c0.211,0,0.316,0.03,0.316,0.135
		c0,0.105-0.091,0.136-0.271,0.136c-0.166,0-0.256,0.015-0.437,0.045c-0.405,0.075-0.524,0.331-0.556,0.856
		c-0.03,0.481-0.03,0.902-0.03,3.187v1.607c0,1.668-0.165,3.441-1.428,4.524c-1.067,0.916-2.149,1.082-3.126,1.082
		c-0.797,0-2.239-0.046-3.337-1.037c-0.767-0.691-1.339-1.804-1.339-3.983V4.689H133.573z"/>
	<path fill="#243B77" d="M147.862,9.649c0.029,1.173,0.226,1.562,0.525,1.668c0.256,0.091,0.541,0.104,0.781,0.104
		c0.165,0,0.256,0.03,0.256,0.12c0,0.12-0.136,0.15-0.346,0.15c-0.979,0-1.578-0.045-1.864-0.045c-0.135,0-0.842,0.045-1.623,0.045
		c-0.194,0-0.331-0.016-0.331-0.15c0-0.09,0.092-0.12,0.241-0.12c0.195,0,0.466-0.015,0.677-0.074
		c0.391-0.12,0.45-0.557,0.465-1.863l0.137-8.898c0-0.301,0.045-0.511,0.195-0.511c0.164,0,0.301,0.196,0.556,0.466
		c0.181,0.195,2.465,2.646,4.659,4.824c1.021,1.022,3.052,3.187,3.307,3.427h0.075l-0.15-6.749
		c-0.015-0.917-0.149-1.203-0.511-1.353c-0.227-0.09-0.586-0.09-0.797-0.09c-0.18,0-0.24-0.045-0.24-0.136
		c0-0.121,0.165-0.135,0.391-0.135c0.782,0,1.504,0.045,1.819,0.045c0.165,0,0.735-0.045,1.474-0.045
		c0.194,0,0.346,0.015,0.346,0.135c0,0.091-0.09,0.136-0.271,0.136c-0.15,0-0.271,0-0.451,0.045c-0.42,0.12-0.541,0.436-0.556,1.277
		l-0.166,9.484c0,0.33-0.06,0.466-0.194,0.466c-0.166,0-0.347-0.165-0.512-0.331c-0.947-0.9-2.871-2.871-4.434-4.418
		c-1.639-1.624-3.307-3.502-3.577-3.788h-0.045L147.862,9.649z"/>
	<path fill="#243B77" d="M161.249,4.689c0-2.284,0-2.705-0.03-3.187c-0.03-0.511-0.149-0.751-0.646-0.856
		c-0.12-0.03-0.375-0.045-0.586-0.045c-0.166,0-0.256-0.03-0.256-0.136c0-0.104,0.104-0.135,0.33-0.135
		c0.797,0,1.744,0.045,2.164,0.045c0.467,0,1.414-0.045,2.315-0.045c1.878,0,4.39,0,6.026,1.713
		c0.752,0.781,1.457,2.029,1.457,3.817c0,1.894-0.797,3.336-1.637,4.194c-0.691,0.705-2.256,1.772-5.035,1.772
		c-1.099,0-2.451-0.181-3.201-0.181c-0.346,0-1.293,0.045-1.896,0.045c-0.194,0-0.301-0.045-0.301-0.15
		c0-0.075,0.062-0.12,0.241-0.12c0.226,0,0.404-0.029,0.541-0.06c0.301-0.062,0.375-0.393,0.436-0.827
		c0.075-0.631,0.075-1.818,0.075-3.201L161.249,4.689L161.249,4.689z M163.128,6.342c0,1.594,0.016,2.751,0.03,3.036
		c0.015,0.376,0.045,0.978,0.165,1.144c0.195,0.285,0.781,0.601,1.969,0.601c1.533,0,2.557-0.3,3.457-1.082
		c0.962-0.826,1.264-2.193,1.264-3.742c0-1.908-0.798-3.141-1.443-3.757c-1.383-1.323-3.096-1.503-4.27-1.503
		c-0.3,0-0.855,0.045-0.977,0.105c-0.137,0.06-0.182,0.135-0.182,0.301c-0.015,0.511-0.015,1.818-0.015,3.006L163.128,6.342
		L163.128,6.342z"/>
	<path fill="#243B77" d="M176.996,7.8c0-0.812-0.149-1.142-0.347-1.577c-0.104-0.241-2.118-3.548-2.646-4.329
		c-0.376-0.557-0.751-0.933-1.037-1.098c-0.194-0.104-0.45-0.194-0.631-0.194c-0.12,0-0.226-0.03-0.226-0.136
		c0-0.09,0.104-0.135,0.285-0.135c0.271,0,1.397,0.045,1.894,0.045c0.315,0,0.933-0.045,1.608-0.045
		c0.149,0,0.226,0.045,0.226,0.135c0,0.091-0.104,0.105-0.33,0.165c-0.136,0.03-0.211,0.15-0.211,0.271s0.075,0.301,0.181,0.511
		c0.211,0.451,2.314,4.073,2.555,4.494c0.15-0.361,2.045-3.667,2.256-4.133c0.15-0.331,0.21-0.586,0.21-0.782
		c0-0.15-0.06-0.315-0.315-0.375c-0.135-0.03-0.271-0.061-0.271-0.15c0-0.104,0.075-0.135,0.256-0.135
		c0.496,0,0.978,0.045,1.412,0.045c0.331,0,1.323-0.045,1.608-0.045c0.164,0,0.271,0.03,0.271,0.12c0,0.105-0.12,0.15-0.285,0.15
		c-0.149,0-0.437,0.06-0.661,0.18c-0.316,0.15-0.48,0.331-0.812,0.736c-0.494,0.602-2.6,4.133-2.869,4.779
		c-0.227,0.541-0.227,1.008-0.227,1.503v1.232c0,0.24,0,0.872,0.045,1.503c0.03,0.437,0.166,0.767,0.616,0.827
		c0.212,0.029,0.541,0.06,0.753,0.06c0.164,0,0.239,0.045,0.239,0.12c0,0.105-0.12,0.15-0.315,0.15
		c-0.946,0-1.894-0.045-2.299-0.045c-0.377,0-1.322,0.045-1.88,0.045c-0.21,0-0.329-0.03-0.329-0.15c0-0.075,0.074-0.12,0.239-0.12
		c0.21,0,0.392-0.029,0.526-0.06c0.3-0.062,0.436-0.392,0.466-0.827c0.045-0.631,0.045-1.263,0.045-1.503V7.8L176.996,7.8z"/>
</g>
<g display="none">
	<g display="inline">
		<path fill="#243B78" d="M0.296,6.064c0-2.592,1.713-5.943,6.261-5.943c3.776,0,6.125,2.199,6.125,5.671
			c0,3.47-2.425,6.214-6.276,6.214C2.054,12.007,0.296,8.749,0.296,6.064z M10.56,6.352c0-3.396-1.956-5.503-4.442-5.503
			c-1.744,0-3.729,0.97-3.729,4.746c0,3.154,1.743,5.654,4.654,5.654C8.104,11.249,10.56,10.733,10.56,6.352z"/>
		<path fill="#243B78" d="M16.784,9.733c0.03,1.184,0.228,1.578,0.531,1.684c0.258,0.09,0.545,0.105,0.789,0.105
			c0.167,0,0.258,0.031,0.258,0.121c0,0.121-0.137,0.152-0.349,0.152c-0.986,0-1.591-0.045-1.88-0.045
			c-0.136,0-0.85,0.045-1.637,0.045c-0.197,0-0.333-0.016-0.333-0.152c0-0.09,0.09-0.121,0.243-0.121
			c0.196,0,0.469-0.016,0.681-0.076c0.395-0.121,0.455-0.561,0.47-1.879l0.138-8.976c0-0.303,0.045-0.515,0.196-0.515
			c0.167,0,0.303,0.197,0.561,0.47c0.182,0.198,2.487,2.668,4.699,4.867c1.032,1.031,3.079,3.215,3.336,3.458h0.076l-0.152-6.808
			c-0.015-0.924-0.152-1.213-0.516-1.364c-0.227-0.092-0.591-0.092-0.804-0.092c-0.182,0-0.243-0.045-0.243-0.136
			c0-0.121,0.167-0.135,0.394-0.135c0.789,0,1.517,0.045,1.835,0.045c0.167,0,0.743-0.045,1.485-0.045
			c0.197,0,0.35,0.015,0.35,0.135c0,0.091-0.091,0.136-0.274,0.136c-0.151,0-0.272,0-0.455,0.046
			c-0.425,0.121-0.545,0.439-0.561,1.288l-0.167,9.566c0,0.334-0.06,0.471-0.197,0.471c-0.167,0-0.349-0.166-0.516-0.334
			c-0.955-0.91-2.895-2.895-4.472-4.457c-1.653-1.637-3.336-3.533-3.608-3.82h-0.046L16.784,9.733z"/>
		<path fill="#243B78" d="M36.849,1.183l-2.258,0.06c-0.879,0.031-1.243,0.107-1.471,0.44c-0.151,0.228-0.227,0.409-0.257,0.531
			c-0.03,0.121-0.076,0.182-0.167,0.182c-0.106,0-0.137-0.076-0.137-0.242c0-0.243,0.288-1.623,0.318-1.744
			c0.045-0.197,0.091-0.289,0.182-0.289c0.122,0,0.272,0.152,0.652,0.182c0.44,0.046,1.016,0.076,1.516,0.076h6.004
			c0.971,0,1.334-0.151,1.456-0.151c0.106,0,0.121,0.09,0.121,0.318c0,0.318-0.045,1.365-0.045,1.758
			c-0.016,0.152-0.046-0.614-0.138-0.614c-0.121,0-0.151,0.781-0.167,0.554l-0.015-0.167c-0.031-0.395-0.44-0.819-1.789-0.849
			l-1.911-0.045v6.215c0,1.396,0,2.593,0.076,3.243c0.046,0.428,0.138,0.76,0.592,0.82c0.212,0.031,0.546,0.061,0.773,0.061
			c0.167,0,0.243,0.045,0.243,0.121c0,0.107-0.121,0.152-0.288,0.152c-1.001,0-1.957-0.045-2.38-0.045
			c-0.349,0-1.304,0.045-1.911,0.045c-0.197,0-0.303-0.045-0.303-0.152c0-0.076,0.061-0.121,0.243-0.121
			c0.228,0,0.409-0.029,0.546-0.061c0.303-0.061,0.393-0.393,0.439-0.834c0.075-0.637,0.075-1.834,0.075-3.229V1.183z"/>
		<path fill="#243B78" d="M53.371,5.155c0.045,0,0.09-0.031,0.09-0.107V4.73c0-2.304,0-2.729-0.03-3.213
			C53.401,1,53.28,0.758,52.779,0.652c-0.122-0.03-0.378-0.046-0.591-0.046c-0.167,0-0.258-0.029-0.258-0.136
			c0-0.105,0.106-0.135,0.319-0.135c0.818,0,1.773,0.045,2.183,0.045c0.364,0,1.319-0.045,1.91-0.045
			c0.212,0,0.318,0.03,0.318,0.135c0,0.107-0.091,0.136-0.272,0.136c-0.122,0-0.258,0.016-0.44,0.046
			c-0.41,0.075-0.53,0.333-0.561,0.864c-0.03,0.485-0.03,0.909-0.03,3.213v2.668c0,1.396,0,2.593,0.076,3.243
			c0.046,0.428,0.136,0.76,0.591,0.82c0.213,0.031,0.546,0.061,0.774,0.061c0.167,0,0.243,0.045,0.243,0.121
			c0,0.107-0.121,0.152-0.303,0.152c-0.985,0-1.941-0.045-2.365-0.045c-0.349,0-1.304,0.045-1.895,0.045
			c-0.212,0-0.318-0.045-0.318-0.152c0-0.076,0.06-0.121,0.243-0.121c0.227,0,0.409-0.029,0.545-0.061
			c0.304-0.061,0.379-0.393,0.44-0.834c0.076-0.637,0.076-1.834,0.076-3.229V6.064c0-0.06-0.045-0.09-0.09-0.09H47.58
			c-0.046,0-0.092,0.016-0.092,0.09v1.334c0,1.396,0,2.593,0.076,3.243c0.045,0.428,0.137,0.76,0.591,0.82
			c0.212,0.031,0.545,0.061,0.773,0.061c0.167,0,0.243,0.045,0.243,0.121c0,0.107-0.121,0.152-0.303,0.152
			c-0.986,0-1.941-0.045-2.365-0.045c-0.35,0-1.304,0.045-1.911,0.045c-0.197,0-0.303-0.045-0.303-0.152
			c0-0.076,0.061-0.121,0.242-0.121c0.228,0,0.409-0.029,0.546-0.061c0.304-0.061,0.379-0.393,0.44-0.834
			c0.075-0.637,0.075-1.834,0.075-3.229V4.73c0-2.304,0-2.729-0.03-3.213C45.533,1,45.412,0.758,44.911,0.652
			c-0.121-0.03-0.379-0.046-0.591-0.046c-0.167,0-0.258-0.029-0.258-0.136c0-0.105,0.106-0.135,0.318-0.135
			c0.819,0,1.774,0.045,2.184,0.045c0.364,0,1.319-0.045,1.911-0.045c0.212,0,0.318,0.03,0.318,0.135
			c0,0.107-0.092,0.136-0.273,0.136c-0.122,0-0.258,0.016-0.44,0.046c-0.409,0.075-0.53,0.333-0.561,0.864
			c-0.031,0.485-0.031,0.909-0.031,3.213v0.318c0,0.076,0.046,0.107,0.092,0.107H53.371z"/>
		<path fill="#243B78" d="M60.322,4.73c0-2.304,0-2.729-0.03-3.213C60.262,1,60.141,0.758,59.641,0.652
			c-0.121-0.03-0.379-0.046-0.592-0.046c-0.167,0-0.257-0.029-0.257-0.136c0-0.105,0.105-0.135,0.333-0.135
			c0.804,0,1.758,0.045,2.184,0.045c0.485,0,3.502,0,3.79-0.015c0.288-0.03,0.53-0.061,0.652-0.091
			c0.076-0.015,0.167-0.06,0.243-0.06s0.091,0.06,0.091,0.136c0,0.106-0.076,0.288-0.122,0.985c-0.015,0.152-0.045,0.819-0.076,1
			c-0.015,0.076-0.045,0.167-0.152,0.167c-0.106,0-0.136-0.076-0.136-0.211c0-0.107-0.015-0.364-0.09-0.547
			c-0.106-0.272-0.258-0.455-1.016-0.545c-0.258-0.031-1.85-0.06-2.153-0.06c-0.076,0-0.106,0.045-0.106,0.15v3.836
			c0,0.106,0.015,0.167,0.106,0.167c0.334,0,2.078,0,2.426-0.03c0.364-0.031,0.591-0.076,0.728-0.228
			c0.106-0.122,0.167-0.197,0.243-0.197c0.061,0,0.106,0.03,0.106,0.121c0,0.091-0.076,0.334-0.122,1.106
			c-0.03,0.304-0.061,0.91-0.061,1.015c0,0.123,0,0.289-0.136,0.289c-0.106,0-0.136-0.061-0.136-0.137
			c-0.016-0.152-0.016-0.348-0.061-0.545c-0.076-0.304-0.288-0.531-0.849-0.591c-0.288-0.031-1.789-0.046-2.152-0.046
			c-0.076,0-0.091,0.061-0.091,0.152v1.197c0,0.515-0.015,1.911,0,2.351c0.03,1.045,0.272,1.273,1.819,1.273
			c0.394,0,1.031,0,1.425-0.182c0.395-0.182,0.576-0.5,0.683-1.121c0.03-0.168,0.06-0.229,0.167-0.229
			c0.122,0,0.122,0.121,0.122,0.271c0,0.35-0.122,1.381-0.197,1.684c-0.106,0.395-0.243,0.395-0.818,0.395
			c-2.29,0-3.306-0.09-4.2-0.09c-0.349,0-1.304,0.045-1.91,0.045c-0.197,0-0.304-0.045-0.304-0.152c0-0.076,0.062-0.121,0.243-0.121
			c0.228,0,0.409-0.029,0.546-0.061c0.303-0.061,0.379-0.393,0.439-0.834c0.075-0.637,0.075-1.834,0.075-3.229V4.73z"/>
		<path fill="#243B78" d="M74.446,4.73c0-2.304,0-2.729-0.03-3.213C74.386,1,74.265,0.758,73.765,0.652
			c-0.122-0.03-0.38-0.046-0.592-0.046c-0.167,0-0.257-0.029-0.257-0.136c0-0.105,0.106-0.135,0.333-0.135
			c0.804,0,1.759,0.045,2.062,0.045c0.743,0,1.334-0.045,1.85-0.045c2.745,0,3.229,1.47,3.229,2.274
			c0,1.243-0.713,1.986-1.547,2.653c1.244,0.424,2.76,1.501,2.76,3.274c0,1.621-1.259,3.305-4.048,3.305
			c-0.364,0-1.743-0.09-2.198-0.09c-0.349,0-1.304,0.045-1.91,0.045c-0.198,0-0.304-0.045-0.304-0.152
			c0-0.076,0.062-0.121,0.243-0.121c0.228,0,0.409-0.029,0.546-0.061c0.303-0.061,0.379-0.393,0.439-0.834
			c0.076-0.637,0.076-1.834,0.076-3.229V4.73z M76.266,4.988c0,0.122,0.045,0.151,0.106,0.167c0.137,0.03,0.363,0.045,0.713,0.045
			c0.5,0,0.833-0.061,1.091-0.288c0.394-0.318,0.622-0.864,0.622-1.607c0-1.015-0.59-2.35-1.895-2.35c-0.212,0-0.348,0-0.5,0.03
			c-0.106,0.03-0.136,0.091-0.136,0.257V4.988z M78.267,6.201c-0.318-0.228-0.667-0.334-1.258-0.364
			c-0.273-0.016-0.425-0.016-0.652-0.016c-0.061,0-0.09,0.031-0.09,0.106V9.52c0,1.002,0.045,1.26,0.531,1.455
			c0.409,0.168,0.757,0.184,1.106,0.184c0.683,0,1.833-0.365,1.833-1.941C79.737,8.278,79.42,7.005,78.267,6.201z"/>
		<path fill="#243B78" d="M85.844,7.839c-0.076,0-0.106,0.029-0.137,0.121l-0.819,2.168c-0.151,0.379-0.228,0.742-0.228,0.924
			c0,0.273,0.137,0.471,0.606,0.471h0.228c0.182,0,0.227,0.031,0.227,0.121c0,0.121-0.09,0.152-0.257,0.152
			c-0.485,0-1.137-0.045-1.607-0.045c-0.167,0-1,0.045-1.789,0.045c-0.197,0-0.288-0.031-0.288-0.152c0-0.09,0.06-0.121,0.182-0.121
			c0.136,0,0.348-0.016,0.47-0.029c0.697-0.092,0.986-0.607,1.289-1.365l3.806-9.522C87.708,0.167,87.799,0,87.951,0
			c0.136,0,0.227,0.137,0.378,0.485c0.364,0.834,2.79,7.02,3.76,9.325c0.577,1.363,1.017,1.576,1.333,1.652
			c0.228,0.045,0.455,0.061,0.638,0.061c0.121,0,0.197,0.016,0.197,0.121c0,0.121-0.137,0.152-0.698,0.152
			c-0.546,0-1.651,0-2.865-0.031c-0.273-0.014-0.455-0.014-0.455-0.121c0-0.09,0.062-0.121,0.213-0.137
			c0.105-0.029,0.211-0.166,0.135-0.348l-1.212-3.215c-0.03-0.076-0.076-0.105-0.152-0.105H85.844z M88.936,7.079
			c0.076,0,0.091-0.045,0.076-0.09l-1.365-3.745c-0.015-0.061-0.03-0.137-0.076-0.137c-0.045,0-0.076,0.076-0.091,0.137
			l-1.395,3.729c-0.016,0.061,0,0.105,0.061,0.105H88.936z"/>
		<path fill="#243B78" d="M97.014,7.868c0-0.818-0.152-1.151-0.351-1.591c-0.104-0.243-2.136-3.579-2.667-4.367
			c-0.379-0.561-0.758-0.94-1.045-1.107c-0.198-0.106-0.456-0.198-0.637-0.198c-0.122,0-0.228-0.029-0.228-0.136
			c0-0.09,0.106-0.135,0.287-0.135c0.274,0,1.411,0.045,1.911,0.045c0.318,0,0.94-0.045,1.622-0.045
			c0.152,0,0.228,0.045,0.228,0.135c0,0.091-0.105,0.107-0.333,0.167c-0.137,0.03-0.213,0.151-0.213,0.273s0.076,0.303,0.182,0.515
			c0.213,0.455,2.335,4.109,2.577,4.534c0.152-0.364,2.063-3.7,2.274-4.169c0.151-0.334,0.213-0.591,0.213-0.789
			c0-0.151-0.062-0.318-0.318-0.378c-0.138-0.031-0.272-0.061-0.272-0.152c0-0.105,0.075-0.135,0.257-0.135
			c0.501,0,0.985,0.045,1.425,0.045c0.335,0,1.335-0.045,1.623-0.045c0.167,0,0.272,0.03,0.272,0.121
			c0,0.106-0.122,0.151-0.288,0.151c-0.152,0-0.439,0.062-0.667,0.183c-0.318,0.152-0.485,0.333-0.818,0.743
			c-0.5,0.606-2.622,4.169-2.896,4.821c-0.228,0.546-0.228,1.016-0.228,1.516v1.244c0,0.242,0,0.879,0.046,1.516
			c0.03,0.441,0.167,0.773,0.622,0.834c0.212,0.031,0.545,0.061,0.758,0.061c0.167,0,0.242,0.045,0.242,0.121
			c0,0.107-0.121,0.152-0.318,0.152c-0.955,0-1.91-0.045-2.319-0.045c-0.378,0-1.334,0.045-1.895,0.045
			c-0.213,0-0.334-0.031-0.334-0.152c0-0.076,0.076-0.121,0.243-0.121c0.211,0,0.395-0.029,0.529-0.061
			c0.304-0.061,0.44-0.393,0.471-0.834c0.046-0.637,0.046-1.273,0.046-1.516V7.868z"/>
	</g>
	<g display="inline">
		<path fill="#243B78" d="M108.562,11.932c-1.32,0-1.729-1.426-1.729-2.305c0-2.092,1.335-4.609,3.124-4.609
			c1.213,0,1.835,0.909,1.835,2.303C111.791,9.339,110.502,11.932,108.562,11.932z M110.001,5.412c-0.985,0-2.184,3.108-2.184,4.516
			c0,0.562-0.03,1.609,0.82,1.609c0.787,0,2.167-2.973,2.167-4.519C110.805,5.897,110.622,5.412,110.001,5.412z"/>
		<path fill="#243B78" d="M112.817,5.973c-0.091,0-0.136-0.031-0.136-0.061c0-0.076,0.045-0.379,0.152-0.394
			c1.515-0.121,1.561-0.121,1.651-0.379c0.167-0.469,0.349-1.44,0.743-2.29c0.606-1.319,1.926-2.273,3.411-2.273
			c0.44,0,1.289,0.227,1.289,0.788c0,0.439-0.197,0.773-0.683,0.773c-1.002,0-0.622-1.061-1.395-1.061c-0.318,0-1.303,0-1.972,3.275
			c-0.075,0.378-0.228,0.849-0.228,0.97c0,0.076,0.062,0.076,0.107,0.076h1.622c0.091,0,0.12,0,0.12,0.09
			c0,0.016-0.06,0.485-0.167,0.485h-1.652c-0.166,0-0.227,0.106-0.273,0.318c-1.499,6.822-1.879,7.99-2.864,8.824
			c-0.484,0.41-1.107,0.729-1.759,0.729c-0.454,0-0.956-0.123-0.956-0.67c0-0.301,0.289-0.545,0.578-0.545
			c0.559,0,0.909,0.545,1.304,0.545c0.272,0,0.605-0.256,0.924-1.697c1.168-5.26,1.637-7.186,1.637-7.352
			c0-0.076-0.06-0.152-0.135-0.152H112.817z"/>
	</g>
	<g display="inline">
		<path fill="#243B78" d="M126.141,7.398c0,1.456,0,2.593,0.075,3.229c0.047,0.441,0.138,0.773,0.594,0.834
			c0.21,0.031,0.545,0.061,0.757,0.061c0.196,0,0.257,0.045,0.257,0.121c0,0.107-0.104,0.152-0.333,0.152
			c-0.956,0-1.911-0.045-2.304-0.045c-0.395,0-1.35,0.045-1.926,0.045c-0.213,0-0.318-0.031-0.318-0.152
			c0-0.076,0.062-0.121,0.229-0.121c0.226,0,0.408-0.029,0.545-0.061c0.302-0.061,0.379-0.393,0.439-0.834
			c0.077-0.637,0.077-1.773,0.077-3.229V4.73c0-2.304,0-2.729-0.032-3.213c-0.03-0.516-0.15-0.759-0.651-0.864
			c-0.12-0.03-0.378-0.046-0.591-0.046c-0.152,0-0.258-0.029-0.258-0.121c0-0.121,0.12-0.15,0.348-0.15
			c0.789,0,1.744,0.045,2.184,0.045c0.576,0,3.653,0,4.003-0.015c0.287-0.015,0.47-0.015,0.62-0.061
			c0.092-0.03,0.167-0.09,0.243-0.09c0.062,0,0.107,0.06,0.107,0.136c0,0.106-0.075,0.288-0.122,0.683
			c-0.016,0.151-0.045,1.046-0.076,1.227c-0.015,0.122-0.044,0.212-0.152,0.212c-0.104,0-0.135-0.075-0.15-0.243
			c0-0.121,0-0.363-0.091-0.576c-0.106-0.212-0.425-0.44-1.001-0.455l-2.334-0.046c-0.092,0-0.138,0.046-0.138,0.212v3.791
			c0,0.091,0.018,0.136,0.107,0.136l1.94-0.015c0.257,0,0.469,0,0.682-0.015c0.289-0.016,0.5-0.076,0.651-0.273
			c0.077-0.091,0.105-0.151,0.198-0.151c0.06,0,0.091,0.045,0.091,0.136c0,0.091-0.076,0.47-0.122,0.94
			c-0.029,0.303-0.062,1-0.062,1.106c0,0.136,0,0.288-0.149,0.288c-0.091,0-0.122-0.105-0.122-0.212s-0.029-0.288-0.092-0.471
			c-0.075-0.211-0.303-0.485-0.772-0.545c-0.379-0.046-1.985-0.046-2.243-0.046c-0.076,0-0.107,0.03-0.107,0.136V7.398z"/>
		<path fill="#243B78" d="M133.006,4.73c0-2.304,0-2.729-0.031-3.213c-0.03-0.516-0.152-0.759-0.652-0.864
			c-0.12-0.03-0.378-0.046-0.591-0.046c-0.166,0-0.258-0.029-0.258-0.136c0-0.105,0.106-0.135,0.334-0.135
			c0.803,0,1.759,0.045,2.212,0.045c0.365,0,1.32-0.045,1.865-0.045c0.228,0,0.333,0.03,0.333,0.135c0,0.107-0.09,0.136-0.242,0.136
			c-0.166,0-0.258,0.016-0.438,0.046c-0.41,0.075-0.531,0.333-0.562,0.864c-0.029,0.485-0.029,0.909-0.029,3.213v2.123
			c0,2.199,0.438,3.123,1.182,3.73c0.684,0.561,1.379,0.621,1.896,0.621c0.667,0,1.485-0.211,2.092-0.818
			c0.834-0.834,0.879-2.197,0.879-3.761V4.73c0-2.304,0-2.729-0.03-3.213c-0.029-0.516-0.151-0.759-0.651-0.864
			c-0.12-0.03-0.379-0.046-0.546-0.046s-0.258-0.029-0.258-0.136c0-0.105,0.105-0.135,0.318-0.135c0.773,0,1.728,0.045,1.745,0.045
			c0.181,0,1.137-0.045,1.728-0.045c0.213,0,0.318,0.03,0.318,0.135c0,0.107-0.092,0.136-0.272,0.136
			c-0.167,0-0.259,0.016-0.441,0.046c-0.408,0.075-0.528,0.333-0.561,0.864c-0.03,0.485-0.03,0.909-0.03,3.213v1.622
			c0,1.684-0.166,3.473-1.44,4.565c-1.076,0.924-2.168,1.09-3.153,1.09c-0.803,0-2.259-0.045-3.365-1.045
			c-0.773-0.697-1.349-1.818-1.349-4.018V4.73z"/>
		<path fill="#243B78" d="M147.418,9.733c0.031,1.184,0.228,1.578,0.531,1.684c0.257,0.09,0.546,0.105,0.789,0.105
			c0.167,0,0.257,0.031,0.257,0.121c0,0.121-0.136,0.152-0.349,0.152c-0.986,0-1.592-0.045-1.88-0.045
			c-0.136,0-0.849,0.045-1.638,0.045c-0.198,0-0.333-0.016-0.333-0.152c0-0.09,0.09-0.121,0.242-0.121
			c0.197,0,0.471-0.016,0.682-0.076c0.395-0.121,0.456-0.561,0.471-1.879l0.137-8.976c0-0.303,0.045-0.515,0.196-0.515
			c0.167,0,0.304,0.197,0.561,0.47c0.183,0.198,2.487,2.668,4.7,4.867c1.032,1.031,3.078,3.215,3.335,3.458h0.076l-0.15-6.808
			c-0.016-0.924-0.152-1.213-0.517-1.364c-0.228-0.092-0.59-0.092-0.804-0.092c-0.182,0-0.242-0.045-0.242-0.136
			c0-0.121,0.167-0.135,0.394-0.135c0.789,0,1.518,0.045,1.836,0.045c0.167,0,0.742-0.045,1.484-0.045
			c0.198,0,0.349,0.015,0.349,0.135c0,0.091-0.091,0.136-0.271,0.136c-0.152,0-0.272,0-0.455,0.046
			c-0.426,0.121-0.546,0.439-0.561,1.288l-0.169,9.566c0,0.334-0.059,0.471-0.195,0.471c-0.167,0-0.348-0.166-0.515-0.334
			c-0.955-0.91-2.897-2.895-4.474-4.457c-1.652-1.637-3.335-3.533-3.607-3.82h-0.046L147.418,9.733z"/>
		<path fill="#243B78" d="M160.922,4.73c0-2.304,0-2.729-0.032-3.213C160.86,1,160.74,0.758,160.238,0.652
			c-0.12-0.03-0.378-0.046-0.591-0.046c-0.167,0-0.258-0.029-0.258-0.136c0-0.105,0.105-0.135,0.333-0.135
			c0.804,0,1.759,0.045,2.184,0.045c0.471,0,1.426-0.045,2.335-0.045c1.895,0,4.428,0,6.079,1.728
			c0.757,0.788,1.471,2.046,1.471,3.851c0,1.91-0.804,3.365-1.652,4.23c-0.697,0.713-2.273,1.789-5.079,1.789
			c-1.107,0-2.472-0.182-3.229-0.182c-0.35,0-1.305,0.045-1.911,0.045c-0.197,0-0.303-0.045-0.303-0.152
			c0-0.076,0.06-0.121,0.243-0.121c0.226,0,0.409-0.029,0.545-0.061c0.304-0.061,0.379-0.393,0.439-0.834
			c0.077-0.637,0.077-1.834,0.077-3.229V4.73z M162.815,6.398c0,1.606,0.015,2.774,0.031,3.063c0.015,0.377,0.046,0.984,0.167,1.15
			c0.196,0.287,0.786,0.607,1.985,0.607c1.547,0,2.577-0.303,3.486-1.092c0.971-0.834,1.274-2.215,1.274-3.776
			c0-1.925-0.804-3.168-1.455-3.789c-1.395-1.334-3.125-1.517-4.307-1.517c-0.303,0-0.864,0.045-0.984,0.106
			c-0.138,0.061-0.184,0.136-0.184,0.303c-0.015,0.516-0.015,1.835-0.015,3.033V6.398z"/>
		<path fill="#243B78" d="M176.803,7.868c0-0.818-0.152-1.151-0.351-1.591c-0.105-0.243-2.137-3.579-2.668-4.367
			c-0.379-0.561-0.758-0.94-1.045-1.107c-0.198-0.106-0.454-0.198-0.637-0.198c-0.122,0-0.228-0.029-0.228-0.136
			c0-0.09,0.105-0.135,0.287-0.135c0.273,0,1.411,0.045,1.911,0.045c0.318,0,0.941-0.045,1.622-0.045
			c0.151,0,0.227,0.045,0.227,0.135c0,0.091-0.104,0.107-0.333,0.167c-0.136,0.03-0.213,0.151-0.213,0.273s0.077,0.303,0.182,0.515
			c0.214,0.455,2.335,4.109,2.578,4.534c0.152-0.364,2.062-3.7,2.273-4.169c0.152-0.334,0.213-0.591,0.213-0.789
			c0-0.151-0.061-0.318-0.318-0.378c-0.136-0.031-0.272-0.061-0.272-0.152c0-0.105,0.077-0.135,0.258-0.135
			c0.5,0,0.985,0.045,1.424,0.045c0.336,0,1.336-0.045,1.624-0.045c0.167,0,0.272,0.03,0.272,0.121c0,0.106-0.122,0.151-0.289,0.151
			c-0.151,0-0.439,0.062-0.667,0.183c-0.318,0.152-0.484,0.333-0.817,0.743c-0.5,0.606-2.623,4.169-2.896,4.821
			c-0.229,0.546-0.229,1.016-0.229,1.516v1.244c0,0.242,0,0.879,0.047,1.516c0.03,0.441,0.166,0.773,0.622,0.834
			c0.212,0.031,0.545,0.061,0.758,0.061c0.166,0,0.243,0.045,0.243,0.121c0,0.107-0.123,0.152-0.319,0.152
			c-0.955,0-1.911-0.045-2.32-0.045c-0.378,0-1.333,0.045-1.895,0.045c-0.213,0-0.333-0.031-0.333-0.152
			c0-0.076,0.075-0.121,0.242-0.121c0.212,0,0.396-0.029,0.53-0.061c0.304-0.061,0.441-0.393,0.47-0.834
			c0.047-0.637,0.047-1.273,0.047-1.516V7.868z"/>
	</g>
</g>
</svg>
